<svg width="72" height="73" viewBox="0 0 72 73" fill="none" xmlns="http://www.w3.org/2000/svg">
<g clip-path="url(#clip0)">
<path d="M55.4504 44.535L50.0128 49.9726L51.6462 51.606L54.2951 48.9571V58.8758H56.6056V48.9571L59.2545 51.606L60.888 49.9726L55.4504 44.535Z" fill="#565656"/>
<path d="M29.6971 11.8506L28.0637 13.4841L30.7126 16.133H13.8626V18.4435H30.7126L28.0637 21.0924L29.6971 22.7258L35.1347 17.2882L29.6971 11.8506Z" fill="#565656"/>
<path d="M4.62085 49.6341V65.8071H25.4147V49.6341H4.62085ZM23.1043 63.4967H6.93128V51.9445H23.1043V63.4967Z" fill="#565656"/>
<path d="M40.4326 49.6341H28.8804V51.9445H40.4326V49.6341Z" fill="#565656"/>
<path d="M40.4326 54.2549H28.8804V56.5654H40.4326V54.2549Z" fill="#565656"/>
<path d="M40.4326 58.8758H28.8804V61.1862H40.4326V58.8758Z" fill="#565656"/>
<path d="M40.4326 63.4966H28.8804V65.8071H40.4326V63.4966Z" fill="#565656"/>
<path d="M70.4301 37.2074C69.5948 34.2824 67.2232 32.0944 64.2416 31.4995L57.7608 30.2033V29.9007C59.898 28.66 61.4898 26.5898 62.0998 24.1315C64.2312 23.7203 65.8473 21.8477 65.8473 19.5984V11.654C65.8473 8.46794 63.7853 5.68503 60.7805 4.73659C59.0985 2.46082 56.4439 1.11499 53.5963 1.11499C46.3369 1.11499 40.4326 7.0193 40.4326 14.2787V19.5984C40.4326 21.8477 42.0487 23.7203 44.1801 24.1315C44.79 26.5898 46.3819 28.66 48.5191 29.9007V30.2033L42.0406 31.4995C39.5742 31.9928 37.5399 33.5835 36.4321 35.7715H0V72.7384H46.2086V42.7028H72L70.4301 37.2074ZM62.3817 21.5877V17.6092C63.069 18.01 63.5369 18.7471 63.5369 19.5984C63.5369 20.4498 63.069 21.1869 62.3817 21.5877ZM43.8982 21.5877C43.2109 21.1869 42.743 20.4498 42.743 19.5984C42.743 18.7471 43.2109 18.01 43.8982 17.6092V21.5877ZM42.743 15.6199V14.2775C42.743 8.29466 47.6111 3.42542 53.5963 3.42542C55.8166 3.42542 57.8786 4.52865 59.1101 6.377L59.3573 6.74782L59.7905 6.85641C61.997 7.40745 63.5369 9.38056 63.5369 11.654V15.6199C62.8542 15.2225 62.0721 14.9776 61.2265 14.9776C58.4944 14.9776 55.7865 14.0754 53.6009 12.4361L51.8761 11.1423L50.1526 12.8658C48.7906 14.2278 46.9803 14.9776 45.0534 14.9776C44.2078 14.9776 43.4257 15.2225 42.743 15.6199ZM46.2086 21.9089V17.2106C48.3146 16.9576 50.2635 16.0219 51.786 14.4993L52.0933 14.192L52.2158 14.2833C54.4892 15.9884 57.2421 17.0177 60.0712 17.2407V21.9089C60.0712 25.7315 56.9626 28.8402 53.1399 28.8402C49.3173 28.8402 46.2086 25.7315 46.2086 21.9089ZM43.8982 70.428H2.31043V47.3236H43.8982V70.428ZM43.8982 45.0132H2.31043V38.0819H35.6003L34.2799 42.7028H43.8982V45.0132ZM63.2827 40.3923L62.3459 36.6471L60.1047 37.2063L60.9018 40.3923H45.378L46.174 37.2063L43.9329 36.6471L42.996 40.3923H37.3424L38.0725 37.8416C38.6697 35.7518 40.3633 34.1911 42.4935 33.7649L50.8295 32.0979V30.8456C51.57 31.0386 52.3405 31.1506 53.1399 31.1506C53.9394 31.1506 54.7099 31.0386 55.4504 30.8468V32.099L63.7876 33.7649C65.9178 34.1911 67.6113 35.753 68.2086 37.8416L68.9364 40.3923H63.2827Z" fill="#565656"/>
<path d="M6.93128 40.3923H4.62085V42.7028H6.93128V40.3923Z" fill="#565656"/>
<path d="M11.5522 40.3923H9.24173V42.7028H11.5522V40.3923Z" fill="#565656"/>
<path d="M16.173 40.3923H13.8626V42.7028H16.173V40.3923Z" fill="#565656"/>
<path d="M2.31043 16.1328H0V18.4432H2.31043V16.1328Z" fill="#565656"/>
<path d="M6.93128 16.1328H4.62085V18.4432H6.93128V16.1328Z" fill="#565656"/>
<path d="M11.5522 16.1328H9.24173V18.4432H11.5522V16.1328Z" fill="#565656"/>
<path d="M56.6056 70.428H54.2952V72.7384H56.6056V70.428Z" fill="#565656"/>
<path d="M56.6056 65.8071H54.2952V68.1176H56.6056V65.8071Z" fill="#565656"/>
<path d="M56.6056 61.1862H54.2952V63.4967H56.6056V61.1862Z" fill="#565656"/>
</g>
<defs>
<clipPath id="clip0">
<rect width="72" height="72" fill="white" transform="translate(0 0.92688)"/>
</clipPath>
</defs>
</svg>
