<svg width="64" height="64" viewBox="0 0 64 64" fill="none" xmlns="http://www.w3.org/2000/svg">
<path d="M40.0157 44.627C39.4969 44.627 39.0763 45.0475 39.0763 45.5663C39.0763 46.7058 38.1493 47.6328 37.0098 47.6328C35.8703 47.6328 34.9432 46.7058 34.9432 45.5663C34.9432 44.4268 35.8703 43.4998 37.0098 43.4998C37.5285 43.4998 37.9491 43.0792 37.9491 42.5604C37.9491 42.0417 37.5285 41.6211 37.0098 41.6211C34.8344 41.6211 33.0646 43.3909 33.0646 45.5663C33.0646 47.7417 34.8344 49.5115 37.0098 49.5115C39.1852 49.5115 40.955 47.7417 40.955 45.5663C40.955 45.0475 40.5344 44.627 40.0157 44.627Z" fill="#565656"/>
<path d="M17.9726 44.627C17.4539 44.627 17.0333 45.0475 17.0333 45.5663C17.0333 46.7058 16.1062 47.6328 14.9668 47.6328C13.8273 47.6328 12.9002 46.7058 12.9002 45.5663C12.9002 44.4268 13.8273 43.4998 14.9668 43.4998C15.4855 43.4998 15.9061 43.0792 15.9061 42.5604C15.9061 42.0417 15.4855 41.6211 14.9668 41.6211C12.7914 41.6211 11.0215 43.3909 11.0215 45.5663C11.0215 47.7417 12.7914 49.5115 14.9668 49.5115C17.1421 49.5115 18.912 47.7417 18.912 45.5663C18.912 45.0475 18.4914 44.627 17.9726 44.627Z" fill="#565656"/>
<path d="M63.0607 18.5763H61.9961V17.2945C63.1596 16.9015 64 15.8004 64 14.5058C64 14.1266 63.7721 13.7846 63.422 13.6388L41.194 4.37706C39.788 3.79129 38.1592 3.89274 36.8367 4.64847L3.67292 23.5992C2.17725 23.7371 1.00196 24.9983 1.00196 26.5293V27.5939H0.939335C0.420571 27.5939 0 28.0145 0 28.5332V44.9635C0 46.914 1.45622 48.593 3.38724 48.8691L7.82015 49.5023C7.86524 49.5087 7.90995 49.5118 7.95416 49.5118C7.99048 49.5118 8.02618 49.509 8.06162 49.505C9.43342 51.9006 12.0137 53.5197 14.9666 53.5197C17.9195 53.5197 20.4998 51.9008 21.8716 49.5051C21.9073 49.5092 21.9435 49.5118 21.9803 49.5118H29.996C30.0328 49.5118 30.069 49.5092 30.1047 49.5051C31.4765 51.9008 34.0568 53.5197 37.0097 53.5197C41.395 53.5197 44.9627 49.952 44.9627 45.5666V35.7976C44.9627 34.8245 44.7206 33.8565 44.2628 32.998L37.5734 20.455H38.0117C38.5305 20.455 38.9511 20.0344 38.9511 19.5156C38.9511 18.9969 38.5305 18.5763 38.0117 18.5763H36.015C36.0143 18.5763 36.0137 18.5763 36.0131 18.5763H31.6373L33.7475 16.7298C34.5854 17.3276 35.6174 17.5681 36.6692 17.3944C38.2108 17.1399 39.487 15.9457 39.8451 14.4228C40.0456 13.5704 39.9654 12.706 39.6134 11.9214C39.6191 11.9059 39.6348 11.8808 39.6603 11.8637L40.1363 11.5464L55.1076 17.1608V18.82C54.5108 19.1515 54.1057 19.7879 54.1057 20.5177V34.5451V38.5529C54.1057 39.6234 54.9765 40.4942 56.047 40.4942H56.1096V44.5647C56.1096 45.0834 56.5302 45.504 57.0489 45.504C57.5677 45.504 57.9883 45.0834 57.9883 44.5647V40.4942H58.0509C59.1213 40.4942 59.9922 39.6234 59.9922 38.5529V34.9341L62.7229 32.2034C62.8991 32.0273 62.998 31.7883 62.998 31.5392V20.4551H63.0607C63.5794 20.4551 64 20.0345 64 19.5158C64 18.997 63.5794 18.5763 63.0607 18.5763ZM56.9863 18.5763V17.4491H60.1174V18.5763H56.9863ZM26.2009 20.8368L21.9178 24.5845V23.6922L26.2009 20.8368ZM20.0391 26.2284L15.9061 29.8448V27.7001L20.0391 24.9447V26.2284ZM14.0274 31.4886L11.5603 33.6474L9.90096 30.3286C9.74716 30.021 9.56431 29.7353 9.3579 29.4727H12.9628C13.1482 29.4727 13.3295 29.4178 13.4838 29.3149L14.0274 28.9526V31.4886ZM14.0274 37.6708C13.8847 37.6877 13.7433 37.7085 13.6031 37.7328L12.4189 35.3645C12.475 35.333 12.5291 35.2959 12.5794 35.2519L14.0274 33.985V37.6708ZM8.06174 41.6281C8.02605 41.6239 7.98986 41.6213 7.95303 41.6213H1.87867V29.4726H5.47607C6.64573 29.4726 7.69741 30.1225 8.22068 31.1688L11.7778 38.283C10.2102 38.9721 8.90677 40.1523 8.06174 41.6281ZM2.88063 26.5293C2.88063 25.9423 3.35818 25.4647 3.94521 25.4647C4.53223 25.4647 5.00978 25.9423 5.00978 26.5293V27.5939H2.88063V26.5293ZM3.65301 47.0092C2.64141 46.8648 1.87867 45.9853 1.87867 44.9635V43.5H7.28761C7.11001 44.1594 7.0137 44.8517 7.0137 45.5665C7.0137 46.242 7.09899 46.8976 7.25818 47.5242L3.65301 47.0092ZM14.9667 51.6409C11.6173 51.6409 8.89237 48.9159 8.89237 45.5665C8.89237 42.2171 11.6173 39.4921 14.9667 39.4921C18.3161 39.4921 21.0411 42.2171 21.0411 45.5665C21.0411 48.9159 18.3161 51.6409 14.9667 51.6409ZM22.6459 47.633C22.8235 46.9736 22.9198 46.2813 22.9198 45.5665C22.9198 44.8517 22.8235 44.1594 22.6459 43.5H29.3308C29.1532 44.1594 29.0569 44.8517 29.0569 45.5665C29.0569 46.2813 29.1532 46.9736 29.3308 47.633H22.6459ZM37.0098 51.6409C33.6604 51.6409 30.9354 48.9159 30.9354 45.5665C30.9354 42.2171 33.6604 39.4921 37.0098 39.4921C40.3592 39.4921 43.0841 42.2171 43.0841 45.5665C43.0841 48.9159 40.3592 51.6409 37.0098 51.6409ZM37.0098 37.6135C34.0569 37.6135 31.4766 39.2324 30.1048 41.6281C30.0691 41.6239 30.0329 41.6213 29.9961 41.6213H21.9804C21.9436 41.6213 21.9074 41.6239 21.8717 41.6281C20.6476 39.4904 18.4611 37.9731 15.9061 37.6708V32.3412L20.0475 28.7174C20.1685 30.9369 21.7411 32.8568 23.8012 33.2439C23.8225 33.248 23.8441 33.2512 23.8657 33.2537L42.9127 35.4779C42.9498 35.4823 42.9865 35.4843 43.0228 35.4843C43.0388 35.4843 43.0545 35.4829 43.0704 35.4821C43.0786 35.5869 43.0843 35.692 43.0843 35.7973V40.4409C41.6242 38.7134 39.4435 37.6135 37.0098 37.6135ZM35.4442 20.455L42.4168 33.5286L24.1189 31.3918C22.8822 31.1423 21.9178 29.8536 21.9178 28.4427V27.0809L29.4902 20.455H35.4442ZM39.4946 9.71649L38.6183 10.3006C37.8281 10.8274 37.5171 11.8505 37.8949 12.6807C38.083 13.0941 38.1238 13.5356 38.0163 13.9928C37.8325 14.7739 37.1528 15.4105 36.3631 15.5409C35.9735 15.6052 35.5899 15.5613 35.2438 15.4206L36.6264 14.2109C37.0168 13.8692 37.0564 13.2758 36.7148 12.8854C36.3732 12.495 35.7798 12.4555 35.3894 12.797L33.5719 14.3872C33.0757 14.2674 32.5473 14.3482 32.0992 14.6469L12.6784 27.5939H6.88845V26.5293C6.88845 25.708 6.54992 24.9644 6.00535 24.43L37.7689 6.27953C38.5891 5.81074 39.5993 5.74774 40.4714 6.11132L61.962 15.0657C61.7742 15.3684 61.4386 15.5704 61.0568 15.5704H56.2173L40.3454 9.61855C40.0626 9.51234 39.746 9.54891 39.4946 9.71649ZM58.0509 38.6154H56.047C56.0124 38.6154 55.9843 38.5874 55.9843 38.5528V35.4843H58.1135V38.5528C58.1135 38.5874 58.0854 38.6154 58.0509 38.6154ZM61.1194 31.1501L58.6638 33.6056H55.9843V20.5176C55.9843 20.483 56.0124 20.455 56.047 20.455H61.1194V31.1501Z" fill="#565656"/>
</svg>
