<svg width="16" height="16" viewBox="0 0 16 16" fill="none" xmlns="http://www.w3.org/2000/svg">
<path d="M15.8873 0.112663C15.8118 0.0371593 15.7087 -0.00376563 15.6016 0.000273013C15.5146 0.00338854 13.4439 0.0866231 10.9825 0.956624C9.01007 1.65304 7.36603 2.65012 6.09601 3.92018C5.81142 4.20477 5.53448 4.50656 5.26951 4.82007C4.01376 4.08088 3.00748 4.31266 2.37134 4.6531C0.906618 5.43698 0 7.56539 0 9.08776C0.00011539 9.24331 0.0938505 9.38358 0.237549 9.44309C0.285129 9.46282 0.335131 9.4724 0.384671 9.4724C0.484791 9.4724 0.583142 9.43328 0.656722 9.35974C1.42918 8.58728 2.38195 8.63559 2.6932 8.67651L2.8279 8.81121C2.56281 9.44201 2.34926 10.0693 2.19264 10.6793C2.1361 10.9001 2.15518 11.1337 2.23922 11.3474C1.86889 11.5181 1.51161 11.7687 1.20052 12.0798C0.210433 13.0699 0.00938521 15.4829 0.00130791 15.5851C-0.00753864 15.6973 0.0331554 15.8078 0.112736 15.8873C0.185162 15.9597 0.283128 16 0.384671 16C0.394749 16 0.404865 15.9996 0.414981 15.9988C0.517216 15.9908 2.93025 15.7897 3.92033 14.7996C4.23131 14.4887 4.48186 14.1314 4.65252 13.7612C4.87876 13.8501 5.11162 13.8611 5.32101 13.8074C5.93081 13.6509 6.55799 13.4374 7.18887 13.1723L7.32357 13.307C7.36445 13.6182 7.41276 14.571 6.64034 15.3434C6.53037 15.4534 6.49745 15.6188 6.55699 15.7625C6.61649 15.9063 6.75673 16 6.91232 16C8.43469 16 10.5631 15.0933 11.3469 13.6286C11.6874 12.9926 11.9192 11.9863 11.18 10.7305C11.4933 10.4656 11.7952 10.1887 12.0799 9.90399C13.3499 8.63393 14.347 6.9899 15.0434 5.01765C15.9134 2.55608 15.9966 0.485372 15.9997 0.398445C16.0036 0.291709 15.9628 0.188205 15.8873 0.112663ZM0.859962 8.26046C1.0989 7.10413 1.79289 5.83527 2.73447 5.33132C3.36369 4.99462 4.05145 5.02762 4.78272 5.4279C4.15973 6.24725 3.61813 7.12998 3.16668 8.06214C3.16095 8.0586 3.09172 7.97156 2.9631 7.94256C2.91021 7.93059 1.89251 7.7117 0.859962 8.26046ZM3.37639 14.2557C2.84751 14.7845 1.60688 15.0635 0.82273 15.1773C0.936658 14.3932 1.21563 13.1526 1.74446 12.6237C2.04063 12.3276 2.38403 12.103 2.7292 11.9765L4.02357 13.2709C3.8971 13.6161 3.67259 13.9595 3.37639 14.2557ZM5.12993 13.0623C5.01861 13.0908 4.88968 13.0489 4.79383 12.9532C4.29623 12.4556 4.10157 12.2609 4.04049 12.1999C3.92849 12.0879 3.65382 11.8132 3.04714 11.2065C2.95121 11.1104 2.90936 10.9815 2.93779 10.8704C3.06099 10.3906 3.22211 9.89834 3.41804 9.40135L6.59876 12.5821C6.1017 12.778 5.60953 12.9391 5.12993 13.0623ZM10.6688 13.2656C10.1648 14.2072 8.89602 14.9012 7.73974 15.1401C8.10841 14.4464 8.18968 13.5632 8.05498 13.0277C8.02371 12.9033 7.94255 12.8407 7.93802 12.8334C8.8701 12.382 9.75279 11.8403 10.5722 11.2174C10.9725 11.9487 11.0055 12.6365 10.6688 13.2656ZM11.536 9.36004C11.1894 9.7066 10.8162 10.0414 10.4267 10.3552C9.49043 11.109 8.45992 11.7476 7.36049 12.2559L3.74417 8.6397C4.2525 7.54019 4.89107 6.50968 5.64487 5.57353C5.95889 5.18378 6.29367 4.81053 6.64011 4.46413C7.77959 3.32462 9.25019 2.41773 11.0123 1.76493L14.2352 4.98785C13.5825 6.74989 12.6756 8.22049 11.536 9.36004ZM14.5119 4.17662L11.8235 1.48819C13.2882 1.03324 14.5625 0.862889 15.1985 0.801656C15.1372 1.4378 14.9668 2.71205 14.5119 4.17662Z" fill="#F1692B"/>
</svg>
