<svg width="24" height="20" viewBox="0 0 24 20" fill="none" xmlns="http://www.w3.org/2000/svg">
<path d="M24 2.55662C23.1169 2.94821 22.168 3.21292 21.172 3.33193C22.1885 2.72256 22.9693 1.75764 23.337 0.607801C22.3855 1.17213 21.3318 1.58186 20.2102 1.80264C19.3121 0.845691 18.0323 0.247803 16.6161 0.247803C13.8968 0.247803 11.6923 2.45228 11.6923 5.17149C11.6923 5.55741 11.7358 5.9332 11.8198 6.29362C7.7276 6.08822 4.09944 4.12801 1.67095 1.14897C1.24711 1.87619 1.00425 2.722 1.00425 3.62438C1.00425 5.33269 1.87349 6.83981 3.19471 7.72279C2.38757 7.6972 1.62834 7.47571 0.964544 7.1069C0.964075 7.12743 0.964075 7.14806 0.964075 7.16882C0.964075 9.55447 2.66137 11.5445 4.9138 11.9969C4.50069 12.1094 4.06564 12.1698 3.61658 12.1698C3.29929 12.1698 2.99085 12.1388 2.69015 12.0813C3.31677 14.0373 5.13514 15.4611 7.28979 15.5007C5.60464 16.8215 3.48154 17.6085 1.17459 17.6085C0.777138 17.6085 0.385218 17.5853 0 17.5396C2.17902 18.9368 4.76722 19.7519 7.54784 19.7519C16.6046 19.7519 21.5572 12.2491 21.5572 5.74237C21.5572 5.52891 21.5524 5.31656 21.5429 5.10535C22.5051 4.41118 23.3399 3.54399 24 2.55662Z" fill="#999999"/>
</svg>
