<svg width="68" height="68" viewBox="0 0 68 68" fill="none" xmlns="http://www.w3.org/2000/svg">
<path d="M2.5 61.8563V5.77783C2.5 4.88546 2.85558 4.02963 3.48851 3.39862C4.12145 2.76762 4.97989 2.41312 5.875 2.41312H38.5V12.5073C38.5 12.729 38.5661 12.9458 38.6897 13.1302C38.8133 13.3146 38.989 13.4584 39.1945 13.5432C39.4 13.6281 39.6262 13.6503 39.8444 13.607C40.0626 13.5638 40.263 13.457 40.4204 13.3002L43 10.7284L45.5796 13.3002C45.737 13.457 45.9374 13.5638 46.1556 13.607C46.3738 13.6503 46.6 13.6281 46.8055 13.5432C47.011 13.4584 47.1867 13.3146 47.3103 13.1302C47.4339 12.9458 47.5 12.729 47.5 12.5073V2.61949C48.1558 2.85063 48.7239 3.27811 49.1267 3.84346C49.5294 4.40881 49.7471 5.08441 49.75 5.77783V24.8445H52V5.77783C51.9982 4.29109 51.405 2.86574 50.3505 1.81445C49.296 0.763161 47.8663 0.171764 46.375 0.169983H5.875C4.38371 0.171764 2.954 0.763161 1.8995 1.81445C0.844992 2.86574 0.251786 4.29109 0.25 5.77783V61.8563C0.251786 63.3431 0.844992 64.7684 1.8995 65.8197C2.954 66.871 4.38371 67.4624 5.875 67.4642H40.75V65.221H5.875C4.97989 65.221 4.12145 64.8666 3.48851 64.2355C2.85558 63.6045 2.5 62.7487 2.5 61.8563ZM45.25 2.41312V9.79978L43.7954 8.34959C43.5844 8.13933 43.2983 8.02121 43 8.02121C42.7017 8.02121 42.4156 8.13933 42.2046 8.34959L40.75 9.79978V2.41312H45.25Z" fill="#565656"/>
<path d="M49.4204 27.4163C49.2094 27.2059 48.9233 27.0877 48.625 27.0876H39.625V29.3308H48.1592L50.4092 31.5739H14.875C14.7005 31.5738 14.5283 31.6141 14.3721 31.6917L9.87213 33.9348C9.68511 34.028 9.52784 34.1713 9.41795 34.3486C9.30806 34.5259 9.2499 34.7302 9.25 34.9386H4.75V37.1818H9.25C9.24885 37.3911 9.30652 37.5967 9.41647 37.7751C9.52641 37.9534 9.68426 38.0976 9.87213 38.1912L14.3721 40.4343C14.5288 40.51 14.7009 40.5484 14.875 40.5465H57.625C57.9234 40.5465 58.2095 40.4283 58.4205 40.218C58.6315 40.0076 58.75 39.7224 58.75 39.4249H64.375C64.6734 39.4249 64.9595 39.3067 65.1705 39.0964C65.3815 38.8861 65.5 38.6008 65.5 38.3033V33.8171C65.5 33.5196 65.3815 33.2343 65.1705 33.024C64.9595 32.8137 64.6734 32.6955 64.375 32.6955H58.75C58.75 32.398 58.6315 32.1128 58.4205 31.9024C58.2095 31.6921 57.9234 31.5739 57.625 31.5739H53.5908L49.4204 27.4163ZM17.125 33.8171H49.75V38.3033H17.125V33.8171ZM11.5 36.4886V35.6318L14.875 33.9494V38.171L11.5 36.4886ZM63.25 34.9386V37.1818H58.75V34.9386H63.25ZM56.5 38.3033H52V33.8171H56.5V38.3033Z" fill="#565656"/>
<path d="M13.75 15.8719H9.25V18.1151H13.75V15.8719Z" fill="#565656"/>
<path d="M43 15.8719H16V18.1151H43V15.8719Z" fill="#565656"/>
<path d="M43 22.6014H9.25V24.8445H43V22.6014Z" fill="#565656"/>
<path d="M65.5 45.0328H45.25C44.6533 45.0328 44.081 45.2691 43.659 45.6898C43.2371 46.1104 43 46.681 43 47.2759V65.221C43 65.816 43.2371 66.3865 43.659 66.8072C44.081 67.2278 44.6533 67.4642 45.25 67.4642H65.5C66.0967 67.4642 66.669 67.2278 67.091 66.8072C67.5129 66.3865 67.75 65.816 67.75 65.221V47.2759C67.75 46.681 67.5129 46.1104 67.091 45.6898C66.669 45.2691 66.0967 45.0328 65.5 45.0328ZM65.5 49.5191H58.75V47.2759H65.5V49.5191ZM56.5 47.2759V54.0053H54.25V47.2759H56.5ZM52 47.2759V49.5191H45.25V47.2759H52ZM45.25 65.221V51.7622H52V55.1269C52 55.4244 52.1185 55.7096 52.3295 55.92C52.5405 56.1303 52.8266 56.2485 53.125 56.2485H57.625C57.9234 56.2485 58.2095 56.1303 58.4205 55.92C58.6315 55.7096 58.75 55.4244 58.75 55.1269V51.7622H65.5V65.221H45.25Z" fill="#565656"/>
<path d="M63.25 60.7347H58.75V62.9779H63.25V60.7347Z" fill="#565656"/>
<path d="M56.5 60.7347H54.25V62.9779H56.5V60.7347Z" fill="#565656"/>
<path d="M25 45.0328H9.25V47.2759H25V45.0328Z" fill="#565656"/>
<path d="M31.75 45.0328H27.25V47.2759H31.75V45.0328Z" fill="#565656"/>
<path d="M38.5 51.7622H9.25V54.0053H38.5V51.7622Z" fill="#565656"/>
</svg>
