<svg width="14" height="24" viewBox="0 0 14 24" fill="none" xmlns="http://www.w3.org/2000/svg">
<path d="M12.9988 0.00499355L9.88661 0C6.39012 0 4.13054 2.31826 4.13054 5.90637V8.6296H1.00133C0.73093 8.6296 0.511963 8.84882 0.511963 9.11922V13.0649C0.511963 13.3353 0.73118 13.5542 1.00133 13.5542H4.13054V23.5104C4.13054 23.7808 4.34951 23.9998 4.61991 23.9998H8.70264C8.97304 23.9998 9.192 23.7805 9.192 23.5104V13.5542H12.8508C13.1212 13.5542 13.3401 13.3353 13.3401 13.0649L13.3416 9.11922C13.3416 8.98939 13.29 8.86505 13.1983 8.77317C13.1067 8.68129 12.9819 8.6296 12.852 8.6296H9.192V6.32108C9.192 5.21152 9.45641 4.64825 10.9018 4.64825L12.9983 4.6475C13.2685 4.6475 13.4875 4.42828 13.4875 4.15813V0.494361C13.4875 0.22446 13.2687 0.0054929 12.9988 0.00499355Z" fill="#999999"/>
</svg>
