<svg width="22" height="24" viewBox="0 0 22 24" fill="none" xmlns="http://www.w3.org/2000/svg">
<path d="M17.0875 7.92346H4.91266C4.64184 7.92346 4.42231 8.14299 4.42231 8.41382V18.6234C4.42231 18.8942 4.64184 19.1138 4.91266 19.1138H7.08316V22.5545C7.08316 23.3528 7.7303 24 8.52866 24C9.32696 24 9.97417 23.3528 9.97417 22.5545V19.1138H11.9959V22.5545C11.9959 23.3528 12.6431 24 13.4414 24C14.2397 24 14.887 23.3528 14.887 22.5545V19.1138H17.0876C17.3584 19.1138 17.5779 18.8942 17.5779 18.6234V8.41382C17.5779 8.14299 17.3584 7.92346 17.0875 7.92346Z" fill="#999999"/>
<path d="M2.36107 7.92114C1.56277 7.92114 0.915565 8.56829 0.915565 9.36665V15.2377C0.915565 16.036 1.56271 16.6832 2.36107 16.6832C3.15937 16.6832 3.80658 16.0361 3.80658 15.2377V9.36665C3.80652 8.56835 3.15937 7.92114 2.36107 7.92114Z" fill="#999999"/>
<path d="M19.6391 7.92114C18.8408 7.92114 18.1936 8.56829 18.1936 9.36665V15.2377C18.1936 16.036 18.8407 16.6832 19.6391 16.6832C20.4374 16.6832 21.0846 16.0361 21.0846 15.2377V9.36665C21.0846 8.56835 20.4374 7.92114 19.6391 7.92114Z" fill="#999999"/>
<path d="M5.01118 7.20744H16.9603C17.272 7.20744 17.5045 6.92029 17.4404 6.61519C17.0452 4.73138 15.8458 3.14384 14.2184 2.22674L15.2399 0.383655C15.309 0.258873 15.2639 0.101618 15.1391 0.0324888C15.0141 -0.0368151 14.857 0.00843865 14.7879 0.13322L13.7587 1.99019C12.9157 1.599 11.9762 1.38051 10.9857 1.38051C9.99513 1.38051 9.05567 1.599 8.21269 1.99019L7.18348 0.133162C7.11429 0.00832247 6.95704 -0.0366989 6.83231 0.0324307C6.70753 0.10156 6.66245 0.258815 6.73158 0.383597L7.75307 2.22668C6.12562 3.14384 4.92625 4.73132 4.531 6.61519C4.46692 6.92029 4.6994 7.20744 5.01118 7.20744ZM14.5512 4.46067C14.5512 4.76751 14.3024 5.01632 13.9955 5.01632C13.6887 5.01632 13.4399 4.76757 13.4399 4.46067C13.4399 4.15383 13.6886 3.90502 13.9955 3.90502C14.3024 3.90502 14.5512 4.15383 14.5512 4.46067ZM7.97579 3.90502C8.28264 3.90502 8.53145 4.15377 8.53145 4.46067C8.53145 4.76751 8.2827 5.01632 7.97579 5.01632C7.66895 5.01632 7.42014 4.76757 7.42014 4.46067C7.42014 4.15383 7.66889 3.90502 7.97579 3.90502Z" fill="#999999"/>
</svg>
