<svg width="73" height="63" viewBox="0 0 73 63" fill="none" xmlns="http://www.w3.org/2000/svg">
<path d="M71.9081 53.3757C71.3255 53.3757 70.8534 53.8098 70.8534 54.3453V60.8243C70.8534 60.9143 70.7738 60.9876 70.6758 60.9876H66.6683V46.8207C66.6683 46.2852 66.1962 45.851 65.6136 45.851C65.031 45.851 64.5589 46.2852 64.5589 46.8207V60.9877H56.8147L58.9107 58.8678C59.2344 58.5403 59.387 58.0752 59.3191 57.6236C59.3175 57.6139 59.316 57.6044 59.3142 57.5947L56.958 44.7958L57.3915 44.1958L57.5045 44.2695C57.891 44.522 58.3841 44.614 58.8611 44.5045C59.3295 44.3968 59.722 44.1071 59.9377 43.7099V43.7098L62.3352 39.2919L67.8118 41.2419C68.028 41.3283 70.8528 42.5192 70.8528 45.6177V49.82C70.853 50.3556 71.325 50.7898 71.9076 50.7898C72.4902 50.7898 72.9623 50.3556 72.9623 49.8201V45.6178C72.9623 41.1432 68.7879 39.514 68.6103 39.4468C68.6035 39.4442 68.5969 39.4417 68.5902 39.4394L59.2644 36.1188V34.3527C60.7201 33.276 61.7425 31.7242 62.0494 29.9552C62.7755 29.8714 63.4491 29.6042 64.0081 29.1621C64.8096 28.5284 65.2696 27.6062 65.2696 26.6322C65.2696 25.8548 64.9761 25.1109 64.4506 24.5201V21.9036C64.4506 16.783 59.9194 12.6173 54.3501 12.6173C51.8497 12.6173 49.5603 13.4587 47.7945 14.8475C47.7717 14.1045 47.4824 13.3965 46.9783 12.8297V10.2133C46.9783 5.09276 42.4471 0.927002 36.8778 0.927002C31.3082 0.927002 26.7772 5.09289 26.7772 10.2133V12.898C26.2702 13.4549 25.9866 14.1264 25.9616 14.8392C24.8349 13.954 23.4864 13.2875 21.9836 12.9237C21.4194 12.7872 20.8433 13.0965 20.6949 13.6145C20.5465 14.1324 20.8829 14.6628 21.4462 14.7992C24.9496 15.6474 27.3965 18.5689 27.3965 21.9034V23.3537C27.3509 23.345 27.2047 23.3218 27.1991 23.3211C27.1847 23.0474 27.1093 22.8802 26.9471 22.6656C26.6771 22.3089 26.1922 21.8645 24.6327 20.3234C24.0769 19.7746 23.178 19.6739 22.4957 20.084C19.8246 21.6882 16.5794 22.5058 13.5678 22.3433C12.5868 22.2904 11.9741 22.6867 11.7129 23.3361C11.6896 23.3396 11.4287 23.3879 11.4142 23.3911V21.9034C11.4142 18.6882 13.7511 15.7957 17.097 14.8691C17.6547 14.7147 17.9707 14.1738 17.8028 13.6609C17.6348 13.148 17.0455 12.8575 16.4885 13.0121C14.4537 13.5755 12.6246 14.7487 11.3386 16.3151C10.0079 17.9356 9.30459 19.8681 9.30459 21.9036V24.5883C8.77331 25.1719 8.48602 25.8812 8.48602 26.6322C8.48602 28.2923 9.81632 29.74 11.7117 29.956C12.0222 31.6836 13.0417 33.3404 14.6507 34.4669V36.1193L5.33533 39.4397C5.32872 39.442 5.32211 39.4445 5.3155 39.4469C5.13747 39.514 0.962891 41.143 0.962891 45.6177V60.8243C0.962891 61.9839 1.98889 62.927 3.25015 62.927H35.7303C36.1842 62.927 36.6065 62.8033 36.9629 62.5928C37.319 62.8033 37.7414 62.927 38.1955 62.927H70.6758C71.9369 62.927 72.9629 61.9839 72.9629 60.8243V54.3453C72.9628 53.8098 72.4907 53.3757 71.9081 53.3757ZM11.6084 27.9524C10.9901 27.7461 10.5951 27.2202 10.5951 26.632C10.5951 26.0614 11.0451 25.5926 11.6084 25.3701V27.9524ZM60.3597 38.5885L58.2894 42.4032C58.2892 42.4029 55.9898 40.9015 55.9572 40.8802C56.9491 39.7544 56.4831 40.2833 58.5458 37.9427L60.3597 38.5885ZM54.4325 39.5294L51.7048 36.4339V35.5037C52.5915 35.7855 53.5466 35.9156 54.4456 35.9158C54.4457 35.9158 54.446 35.9158 54.4462 35.9158H54.4463C55.3758 35.9157 56.3169 35.7534 57.155 35.4635V36.4398L54.4325 39.5294ZM55.6709 43.0723L55.2829 43.6092H53.5826L53.1946 43.0723L54.4328 42.2638L55.6709 43.0723ZM36.9601 27.839L34.2324 24.7435V23.8133C35.1155 24.094 36.0696 24.2252 36.9732 24.2254C36.9733 24.2254 36.9736 24.2254 36.9737 24.2254H36.9739C37.9017 24.2254 38.8426 24.0637 39.6826 23.7732V24.7494L36.9601 27.839ZM38.1983 31.3821L37.8103 31.9191H36.11L35.722 31.3821L36.9602 30.5737L38.1983 31.3821ZM28.6544 18.1726C28.8268 18.2158 29.004 18.2451 29.1838 18.2656C29.4943 19.9932 30.5139 21.65 32.1229 22.7765V24.4289L29.9712 25.1957C29.8464 24.9549 29.6905 24.728 29.5054 24.52V21.9036C29.5054 20.5877 29.2039 19.3227 28.6544 18.1726ZM42.5647 17.1458C42.5647 19.984 40.0464 22.2857 36.9739 22.2857C33.5073 22.2857 31.1907 19.8157 31.1907 17.1458V12.6037C34.5211 12.7263 37.9809 11.8188 40.8095 10.2001C41.7606 11.1377 42.3264 11.6824 42.5648 11.9353C42.5647 14.3495 42.5647 15.2816 42.5647 17.1458ZM44.5771 18.2649C44.756 18.2442 44.9324 18.2148 45.1038 18.1717C44.5559 19.3146 44.2493 20.5764 44.2493 21.9036V24.5882C44.0872 24.7662 43.9477 24.9559 43.8323 25.1549L41.7921 24.4285V22.6625C43.2477 21.5857 44.2702 20.0338 44.5771 18.2649ZM32.8432 26.2538L35.4323 29.192L33.6667 30.345C33.6657 30.3456 33.665 30.3463 33.664 30.3469L33.1036 30.7129L31.0332 26.8983L32.8432 26.2538ZM39.3875 28.1652L41.0732 26.2523L42.8871 26.8981L40.817 30.7129L40.2553 30.3463C40.2548 30.3459 40.2542 30.3454 40.2536 30.345L38.4847 29.1898L39.3875 28.1652ZM39.9191 32.5055L40.032 32.5792C40.4263 32.8367 40.9212 32.9218 41.3886 32.8142C41.857 32.7065 42.2495 32.4168 42.4652 32.0196V32.0195L44.2453 28.7396C44.8568 29.4326 45.7414 29.8541 46.6523 29.9587C46.9741 31.8126 48.0641 33.3949 49.5955 34.4669V36.1192L40.6287 39.3153L39.4854 33.1056L39.9191 32.5055ZM50.3156 37.9441L52.9048 40.8823C51.7728 41.6217 50.6347 42.3649 50.576 42.4032L48.5056 38.5886L50.3156 37.9441ZM60.037 28.8362C60.0373 31.6051 57.5914 33.9761 54.4463 33.9761C50.8615 33.9761 48.6631 31.3948 48.6631 28.8362V24.2941C51.9698 24.4155 55.4341 23.52 58.2818 21.8905C59.2329 22.8281 59.7988 23.3728 60.0371 23.6257C60.037 26.0397 60.037 26.972 60.037 28.8362ZM63.1602 26.6321C63.1602 27.2214 62.764 27.7462 62.1469 27.9524V25.3146C62.7848 25.5281 63.1602 26.064 63.1602 26.6321ZM46.3589 21.9034C46.3589 17.8524 49.9438 14.5566 54.35 14.5566C58.7563 14.5566 62.341 17.8525 62.341 21.9034V23.3537C62.293 23.3445 62.1611 23.3235 62.1435 23.3211C62.1292 23.0471 62.0534 22.8796 61.8915 22.6656C61.6144 22.2996 61.1348 21.8628 59.5771 20.3234C59.0332 19.7866 58.1363 19.6657 57.4402 20.084C54.8415 21.6447 51.5582 22.5263 48.4339 22.3398C47.5563 22.2869 46.9205 22.682 46.6574 23.3362C46.6339 23.3397 46.3735 23.388 46.3587 23.3913V21.9034H46.3589ZM46.5536 25.3703V27.9511C45.9335 27.7455 45.5403 27.2183 45.5403 26.632C45.5401 26.0614 45.9899 25.5929 46.5536 25.3703ZM45.6875 14.9418C45.6875 15.3501 45.4953 15.7363 45.1602 16.0012C45.0163 16.115 44.8523 16.2024 44.6742 16.262V13.6242C45.3049 13.8346 45.6875 14.3677 45.6875 14.9418ZM36.8774 2.86631C41.2837 2.86631 44.8685 6.16209 44.8685 10.2132V11.6634C44.8208 11.6543 44.6887 11.6333 44.6711 11.6308C44.6555 11.3338 44.5624 11.1513 44.3724 10.9151C44.09 10.5637 43.5694 10.0805 42.1047 8.63303C41.5516 8.08705 40.6533 7.98168 39.9678 8.39359C37.2233 10.042 33.894 10.8442 30.8764 10.6455C30.1381 10.5942 29.443 11.0043 29.1851 11.6457C29.1616 11.6492 28.901 11.6975 28.8864 11.7008V10.2133H28.8863C28.8863 6.16209 32.4712 2.86631 36.8774 2.86631ZM29.0809 13.6799V16.2621C28.4626 16.0558 28.0675 15.53 28.0675 14.9417C28.0675 14.3744 28.514 13.9039 29.0809 13.6799ZM27.2016 25.3146C27.7916 25.512 28.1706 25.9853 28.2082 26.5478C28.2554 27.1733 27.8373 27.7389 27.2016 27.9512V25.3146ZM27.1039 29.9584C28.0986 29.844 29.0117 29.362 29.6105 28.6205L31.4552 32.0195C31.4552 32.0195 31.4552 32.0195 31.4553 32.0196C31.6709 32.4169 32.0634 32.7065 32.5318 32.8142C32.9949 32.9206 33.4903 32.8392 33.8884 32.5792L34.0013 32.5055L34.4349 33.1055L33.292 39.3135L24.3196 36.1187V34.3534H24.3195C25.8133 33.2461 26.804 31.6814 27.1039 29.9584ZM19.4873 39.5294L16.7597 36.4339V35.5037C17.6428 35.7843 18.5971 35.9156 19.5006 35.9157C19.5007 35.9157 19.501 35.9157 19.5011 35.9157C20.4442 35.9157 21.3835 35.7492 22.2098 35.4635V36.4398L19.4873 39.5294ZM20.7257 43.0723L20.3377 43.6092H18.6374L18.2494 43.0723L19.4876 42.2638L20.7257 43.0723ZM23.6005 37.9427L25.4145 38.5886L23.3443 42.4032L22.7826 42.0365C22.782 42.0362 22.7815 42.0356 22.7809 42.0352L21.012 40.8802L23.6005 37.9427ZM13.718 28.8362V24.2941C17.0661 24.417 20.5281 23.4976 23.3367 21.8905C24.2787 22.8193 24.8533 23.3725 25.0919 23.6257C25.0919 26.0399 25.0919 26.9721 25.0919 28.8362C25.0919 31.6563 22.5909 33.9761 19.5011 33.9761C16.061 33.9761 13.718 31.5343 13.718 28.8362ZM15.3706 37.9441L17.9597 40.8823L16.1941 42.0352C16.1931 42.0359 16.1924 42.0365 16.1914 42.0372L15.631 42.4032L13.5606 38.5886L15.3706 37.9441ZM9.36703 60.9878V46.8207C9.36703 46.2852 8.89495 45.851 8.31235 45.851C7.72974 45.851 7.25766 46.2852 7.25766 46.8207V60.9877H3.25015C3.15199 60.9877 3.0724 60.9144 3.0724 60.8244V45.6177C3.0724 42.5033 5.92665 41.3162 6.11143 41.2427L11.5847 39.2919L13.9825 43.7098C13.9825 43.7098 13.9825 43.7098 13.9826 43.7099C14.1982 44.1072 14.5907 44.3968 15.0592 44.5045C15.5223 44.6109 16.0177 44.5295 16.4158 44.2695L16.5288 44.1958L16.9623 44.7958L14.6061 57.5947C14.6043 57.6043 14.6028 57.6139 14.6012 57.6236C14.5334 58.075 14.686 58.54 15.0099 58.868L17.1056 60.9877H9.36703V60.9878ZM16.7231 57.7172L18.9631 45.5486H20.012L22.2522 57.7172L19.4876 60.5133L16.7231 57.7172ZM35.9079 60.8243C35.9079 60.9144 35.8283 60.9877 35.7303 60.9877H31.7231V46.8207C31.7231 46.2852 31.251 45.851 30.6684 45.851C30.0858 45.851 29.6137 46.2852 29.6137 46.8207V60.9877H21.8695L23.9655 58.8678C24.2893 58.5403 24.4418 58.0752 24.3739 57.6236C24.3724 57.6139 24.3708 57.6044 24.369 57.5947L22.0128 44.7958L22.4464 44.1958L22.5593 44.2695C22.8415 44.4538 23.1756 44.55 23.5147 44.55C24.1333 44.55 24.7094 44.2313 24.9927 43.7099V43.7098L27.3902 39.292L32.8668 41.2421C34.4632 41.8805 35.9078 43.527 35.9078 45.6177V60.8243H35.9079ZM36.9627 42.0941C36.5258 41.4469 35.9442 40.848 35.2431 40.3369L36.4357 33.8585H37.4846L38.6778 40.3403C37.958 40.8658 37.3839 41.4701 36.9627 42.0941ZM44.3121 60.9878V46.8207C44.3121 46.2852 43.84 45.851 43.2574 45.851C42.6748 45.851 42.2027 46.2852 42.2027 46.8207V60.9877H38.1953C38.0973 60.9877 38.0176 60.9144 38.0176 60.8244V45.6177C38.0176 44.4649 38.4108 43.4032 39.2483 42.5113C39.8067 41.9224 40.5474 41.4456 41.0568 41.2427L46.53 39.2918L48.9278 43.7098C48.9278 43.7098 48.9278 43.7098 48.9279 43.7099C49.1435 44.1072 49.536 44.3968 50.0044 44.5045C50.4675 44.6109 50.9629 44.5295 51.361 44.2695L51.4739 44.1958L51.9075 44.7958L49.5513 57.5947C49.5495 57.6043 49.5479 57.6139 49.5464 57.6236C49.4786 58.075 49.6312 58.54 49.955 58.868L52.0508 60.9877H44.3121V60.9878ZM51.6681 57.7174L53.9083 45.5488H54.9572L57.1973 57.7174L54.4327 60.5135L51.6681 57.7174Z" fill="#565656"/>
</svg>
