<svg width="24" height="20" viewBox="0 0 24 20" fill="none" xmlns="http://www.w3.org/2000/svg">
<path d="M23.8626 5.83133L18.5601 0.527862C18.381 0.348602 18.0917 0.344207 17.9073 0.518157C17.4955 0.906158 15.5599 2.72897 15.5319 2.75626C15.5302 2.7579 15.5284 2.75937 15.5268 2.76102C15.0683 3.21951 14.6169 3.42386 14.0632 3.42386C12.9312 3.42386 12.064 3.74356 11.3439 4.42563C10.7534 3.86642 10.0841 3.5773 9.1501 3.4808L6.80672 1.13724C6.62361 0.954131 6.3268 0.954131 6.14369 1.13724L0.137285 7.14383C-0.0410594 7.32199 -0.0469187 7.60983 0.126848 7.79532C0.13051 7.79916 0.133623 7.80301 0.137285 7.80667C0.137285 7.80667 4.04585 11.7092 4.05135 11.7145L3.88582 11.88C3.24495 12.5209 3.24459 13.5587 3.886 14.2002C4.18959 14.5034 4.60671 14.6836 5.06301 14.679C5.05806 15.1292 5.23201 15.5462 5.54329 15.8575C5.85951 16.1737 6.28212 16.3414 6.72029 16.3368C6.71553 16.7867 6.8893 17.2035 7.20058 17.5147C7.50417 17.818 7.9211 17.9981 8.37758 17.9936C8.37264 18.4438 8.54659 18.8607 8.85787 19.172C9.49745 19.8116 10.538 19.8116 11.1778 19.172L11.3437 19.0061L11.5096 19.172C12.1492 19.8116 13.1898 19.8116 13.8295 19.172C14.1401 18.8615 14.3144 18.4453 14.31 17.9945C14.7577 17.9991 15.1748 17.8268 15.487 17.5146C15.8111 17.1905 15.9708 16.7633 15.9664 16.3376C16.4209 16.3423 16.8361 16.1654 17.1441 15.8575C17.4559 15.5458 17.6295 15.1281 17.6244 14.679C18.06 14.6834 18.4835 14.5179 18.8016 14.2C19.4426 13.5589 19.4426 12.5213 18.8016 11.88L18.6362 11.7147C21.9045 8.4501 17.7702 12.5877 23.8626 6.49417C24.0457 6.31107 24.0457 6.01443 23.8626 5.83133ZM1.13173 7.47507L6.4753 2.13168L8.27614 3.93252L2.93367 9.27573L1.13173 7.47507ZM4.54866 13.5371C4.274 13.2625 4.274 12.8177 4.54866 12.5429L6.20613 10.8854C6.48042 10.6113 6.92629 10.6115 7.2004 10.8854C7.4756 11.1608 7.4756 11.6048 7.2004 11.88L5.54347 13.537C5.26918 13.8109 4.82277 13.8109 4.54866 13.5371ZM6.20613 15.1946C5.93129 14.9196 5.93093 14.475 6.20613 14.2L7.86324 12.5429C8.13844 12.2679 8.58266 12.2677 8.85787 12.5429C9.13198 12.817 9.13307 13.2619 8.85787 13.537C8.85768 13.5371 8.85768 13.5371 8.85768 13.5373L7.2004 15.1946C6.92629 15.4687 6.48024 15.4687 6.20613 15.1946ZM7.86324 16.8515C7.58858 16.5771 7.58858 16.1321 7.86324 15.8575L9.52071 14.2C9.79482 13.9259 10.2407 13.9259 10.5152 14.2003C10.7858 14.4704 10.7938 14.9154 10.515 15.1944C10.515 15.1944 10.515 15.1944 10.5148 15.1946L8.85805 16.8513C8.58376 17.1255 8.13735 17.1255 7.86324 16.8515ZM9.52071 18.5092C9.24587 18.2342 9.2455 17.7896 9.52071 17.5146L11.1778 15.8575C11.4527 15.5826 11.8972 15.5822 12.1723 15.8575C12.4489 16.1341 12.4449 16.5793 12.1723 16.8517L10.515 18.5092C10.2407 18.7831 9.79482 18.7831 9.52071 18.5092ZM13.1665 18.5092C12.8926 18.7833 12.4465 18.7833 12.1724 18.5092L12.0065 18.3433L12.8353 17.5146C12.8913 17.4585 12.9419 17.3987 12.9887 17.3366L13.1663 17.5144C13.1665 17.5144 13.1665 17.5144 13.1667 17.5146L13.1669 17.5147C13.4417 17.7896 13.4417 18.234 13.1665 18.5092ZM18.1388 13.537C17.8645 13.8109 17.4182 13.8109 17.1441 13.537L14.9897 11.3827C14.8066 11.1996 14.5098 11.1996 14.3267 11.3827C14.1438 11.5656 14.1438 11.8625 14.3267 12.0456L16.4813 14.2002C16.7561 14.4748 16.7563 14.9194 16.4811 15.1946C16.2059 15.4698 15.7611 15.4687 15.487 15.1946L13.3326 13.0396C13.1497 12.8567 12.8529 12.8567 12.6698 13.0396C12.4867 13.2227 12.4866 13.5196 12.6696 13.7027L14.824 15.8575C15.0981 16.1316 15.0981 16.5776 14.824 16.8515C14.6914 16.9843 14.5147 17.0575 14.3267 17.0575C13.8812 17.0575 13.7376 16.7067 13.3152 16.3374C13.311 15.9056 13.1411 15.5004 12.8355 15.1948C12.5246 14.8835 12.1082 14.7097 11.6583 14.7141C11.6629 14.2635 11.4884 13.8471 11.1778 13.537C10.8537 13.2129 10.4265 13.0534 10.0008 13.0578C10.0101 12.1333 9.26143 11.3902 8.34371 11.3997C8.34828 10.9444 8.17031 10.5296 7.86324 10.2226C7.22365 9.58279 6.18288 9.58279 5.54329 10.2226L4.71419 11.0517L3.59725 9.93802L9.11421 4.42013C9.79738 4.49814 10.2573 4.69461 10.679 5.08664L9.35463 6.41086C8.62422 7.14181 8.62422 8.33127 9.35481 9.06259C10.086 9.79318 11.2756 9.79337 12.0065 9.06241L13.3326 7.73654C14.1895 8.59366 17.514 11.9183 18.1386 12.5431C18.4127 12.817 18.4127 13.263 18.1388 13.537ZM17.9732 11.0517L13.9954 7.0737L14.3269 6.74228C14.51 6.55917 14.51 6.26236 14.3269 6.07925C14.1438 5.89633 13.8471 5.89633 13.6638 6.07925L11.3435 8.39975C10.9782 8.76505 10.3831 8.76505 10.0177 8.39975C9.65236 8.03409 9.65236 7.43918 10.0175 7.0737C10.4983 6.59305 11.4461 5.64548 11.9263 5.16537C12.4823 4.60947 13.1414 4.36136 14.0632 4.36136C14.7262 4.36136 15.2986 4.16214 15.8349 3.74026L20.5025 8.52902C17.4514 11.5722 18.0536 10.9715 17.9732 11.0517ZM21.1655 7.866L16.5267 3.10672L18.219 1.51242L22.8684 6.16275L21.1655 7.866Z" fill="#565656"/>
</svg>
