<svg width="171" height="40" viewBox="0 0 171 40" xmlns="http://www.w3.org/2000/svg" fill="none"><path d="M167.573 16.682h-109.079l-1.223-1.662-16.705-2.159s-.464-6.687-2.563-10.243c-1.471-.688-3.488-1.386-6.91-1.386-2.857 0-5.303.314-6.247.575l-9.196 4.623-.681 7.163-2.444 1.008-.107.047c-3.015 1.453-4.806 4.288-5.623 5.9l-1.163.323c-3.777 1.022-4.07 6.875-4.07 8.643 0 5.521 2.434 9.229 6.056 9.229h27.493c1.499 0 3.717-.613 4.774-1.721h127.917l2.27-2.265v-15.583l-2.498-2.493z" fill="#1D1D1E"/><path d="M31.09.488c-2.8 0-5.362.303-6.446.602l-.071.019-.066.033-9.196 4.623-.368.185-.039.409-.639 6.717-2.029.837-.01.004-.01.004-.106.047-.01.005-.01.005c-3.045 1.467-4.903 4.237-5.811 5.94l-.851.237c-4.282 1.159-4.615 7.457-4.615 9.36 0 5.965 2.733 9.973 6.801 9.973h27.493c1.569 0 3.803-.602 5.073-1.722h127.927l.218-.217 2.271-2.266.217-.218v-16.199l-.217-.218-2.499-2.493-.218-.218h-109.01l-1-1.358-.189-.256-.316-.041-16.11-2.082c-.17-1.765-.804-6.896-2.612-9.96l-.117-.198-.209-.098c-1.45-.678-3.582-1.456-7.226-1.456zm0 .744c3.422 0 5.439.698 6.91 1.386 2.099 3.556 2.563 10.243 2.563 10.243l16.705 2.159 1.223 1.662h109.079l2.499 2.493v15.583l-2.271 2.265h-127.917c-1.057 1.108-3.275 1.721-4.774 1.721h-27.493c-3.622 0-6.056-3.709-6.056-9.229 0-1.769.294-7.621 4.07-8.643l1.163-.323c.817-1.612 2.607-4.447 5.623-5.9l.106-.047 2.444-1.008.681-7.163 9.196-4.623c.944-.261 3.39-.575 6.247-.575zM5.954 29.515c0 2.533.806 4.585 1.8 4.585s1.8-2.053 1.8-4.585-.806-4.584-1.8-4.584-1.8 2.053-1.8 4.584z" fill="#999"/><path d="M48.247 30.627c-2.868 0-4.147-1.166-4.147-3.781 0-2.596 1.259-3.753 4.084-3.753 2.89 0 4.179 1.171 4.179 3.796 0 2.585-1.269 3.738-4.116 3.738zm-.047-9.731c-5.308 0-6.422 3.227-6.422 5.935 0 2.727 1.122 5.979 6.469 5.979 5.308 0 6.422-3.227 6.422-5.936 0-2.728-1.123-5.979-6.469-5.979zM66.199 28.817l-7.57-7.719h-1.784v11.509h2.337v-7.708l7.587 7.708h1.752v-11.509h-2.322v7.719zM70.181 23.31h4.666v9.297h2.322v-9.297h3.982l.762-2.212h-11.732v2.212zM85.531 27.966h7.236l.137-2.212h-7.374v-2.444h7.578l.763-2.212h-10.678v11.509h9.915l.764-2.197h-8.342v-2.444zM101.905 23.092c1.036 0 2.597.081 3.869.309l.643.115.211-2.223-.576-.074c-1.609-.209-3.127-.323-4.273-.323-3.108 0-6.674.656-6.674 5.776 0 4.13 2.235 6.138 6.832 6.138 1.125 0 2.744-.127 4.124-.324l.567-.081-.212-2.23-.654.131c-1.265.253-2.851.32-3.588.32-3.372 0-4.748-1.146-4.748-3.955 0-3.009 1.574-3.579 4.478-3.579zM118.232 25.754h-7.349v-4.656h-2.337v11.509h2.337v-4.641h7.349v4.641h2.338v-11.509h-2.338v4.656zM132.73 28.817l-7.57-7.719h-1.784v11.509h2.337v-7.708l7.587 7.708h1.752v-11.509h-2.322v7.719zM137.858 32.607h2.338v-11.509h-2.338v11.509zM149.202 23.092c1.037 0 2.597.081 3.869.309l.643.115.212-2.223-.577-.074c-1.609-.209-3.127-.323-4.273-.323-3.107 0-6.674.656-6.674 5.776 0 4.13 2.235 6.138 6.832 6.138 1.126 0 2.744-.127 4.124-.324l.567-.081-.212-2.23-.654.131c-1.265.253-2.851.32-3.588.32-3.372 0-4.747-1.146-4.747-3.955 0-3.009 1.574-3.579 4.478-3.579zM160.587 25.76c-2.46-.365-3.084-.548-3.084-1.373 0-.944.842-1.295 3.105-1.295.848 0 2.515.041 4.163.311l.645.105.175-2.218-.569-.072c-1.636-.205-3.262-.323-4.46-.323-1.335 0-5.397 0-5.397 3.462 0 2.766 2.518 3.167 5.245 3.601l.243.036c2.176.32 3.062.533 3.062 1.352 0 .885-1.036 1.28-3.359 1.28-.92 0-2.739-.042-4.577-.326l-.651-.1-.14 2.218.564.068c1.69.205 3.493.323 4.946.323 3.676 0 5.539-1.165 5.539-3.463 0-2.745-2.769-3.172-5.45-3.587zM36.071 16.419l20.927 1.781-1.046-1.507-22.445-2.287 2.564 2.013zM34.715 30.95c-1.515-.339-3.891-2.585-3.891-8.053 0-4.664 2.533-6.709 2.533-6.709l-2.333-2.035s-4.246 3.877-4.246 9.863c0 7.18 2.646 11.435 6.914 11.435 3.916 0 7.225-3.276 7.225-3.276l-.769-1.381s-3.386.614-5.432.156z" fill="#FEFEFE"/><path d="M34.389 11.59s1.906-.071 3.95.482l-.02-.502c-1.288-.463-4.063-.86-4.063-.86s1.963-.072 4.042.508l-.039-.501c-1.251-.475-4.135-.888-4.135-.888s1.999-.073 4.099.525l-.058-.502c-1.228-.481-4.173-.904-4.173-.904s2.014-.073 4.124.532l-.076-.504c-1.209-.486-4.204-.915-4.204-.915s2.025-.074 4.141.537l-.088-.489c-1.176-.495-4.255-.935-4.255-.935s2.049-.074 4.178.548l-.104-.492c-1.16-.498-4.276-.944-4.276-.944s2.055-.075 4.187.55l-.12-.496c-1.165-.497-4.269-.941-4.269-.941s2.043-.074 4.168.545l-.111-.411c-1.15-.5-4.29-.949-4.29-.949s2.047-.074 4.176.547l-.116-.386c-1.094-.512-4.348-.977-4.348-.977s2.073-.075 4.214.558l-.056-.167s-1.366-.994-5.704-.994c-4.338 0-5.567.703-5.567.703s.809 4.936.809 8.566l11.941.103-.002-.125c-1.327-.448-3.956-.824-3.956-.824zM19.124 21.797c-1.334 0-2.415 2.754-2.415 6.152 0 3.397 1.081 6.152 2.415 6.152s2.415-2.755 2.415-6.152c0-3.398-1.081-6.152-2.415-6.152zM23.213 16.884s-.961-.779-2.101-1.713c.62-.295 1.09-.502 1.097-.505l-.029-.087c-.007.002-.535.129-1.294.406l-.489-.402c.894-.444 1.694-.795 1.704-.8l-.03-.088c-.011.003-.853.207-1.949.662l-.429-.355c1.101-.576 2.283-1.095 2.298-1.103l-.029-.088c-.015.004-1.188.288-2.573.938l-.383-.319c1.219-.69 2.875-1.418 2.898-1.428l-.029-.088c-.018.005-1.554.378-3.19 1.247l-.203-.171.009-.189c1.204-.756 3.343-1.696 3.37-1.708l-.029-.088c-.018.005-1.636.396-3.32 1.315l.021-.481c1.218-.746 3.259-1.644 3.285-1.656l-.03-.088c-.018.004-1.581.384-3.234 1.271l.021-.488c1.225-.736 3.173-1.592 3.199-1.603l-.029-.088c-.018.004-1.528.372-3.148 1.225l.018-.402c1.227-.731 3.141-1.572 3.167-1.584l-.03-.088c-.018.004-1.508.366-3.117 1.208l.017-.387c1.226-.734 3.161-1.585 3.187-1.596l-.03-.088c-.018.004-1.52.37-3.137 1.219l.015-.337 4.057-2.171s.54 3.206.54 5.746c0 2.54-.07 4.948-.07 4.948zm-3.538 18.702h-12.06c-1.647 0-2.89-2.609-2.89-6.07 0-2.466.663-5.307 1.734-5.595l12.737-3.543.069-.017c.055-.015.207-.049.411-.049 1.998 0 3.505 3.284 3.505 7.638s-1.507 7.637-3.505 7.637zm-6.051-17.859l2.883-1.125 1.683.828-6.671 2.289s.701-1.558 2.104-1.991zm11.218-5.652c0-4.646-.959-7.913-.959-7.913l-6.444 3.439-.432 6.08c1.085.934 3.8 3.279 5.227 4.519 0 0-3.339-1.804-5.716-3.039l-1.436.6-1.777.729c-3.165 1.525-4.748 5.034-5.053 5.775l-2.087.581c-2.019.546-2.558 4.449-2.558 6.67 0 4.231 1.648 7.185 4.007 7.185h12.06c2.721 0 4.622-3.599 4.622-8.752 0-3.257-.761-5.89-2.006-7.389l2.553-1.451v-7.034z" fill="#999"/></svg>