<svg xmlns="http://www.w3.org/2000/svg" xmlns:xlink="http://www.w3.org/1999/xlink"><defs>
<clipPath id="clip0">
<rect width="1920" height="4232" fill="white" transform="translate(-880 -3550)"/>
</clipPath>

<clipPath id="clip0">
<rect width="72" height="72" fill="white" transform="translate(0 0.92688)"/>
</clipPath>
</defs><symbol id="icon-android" viewBox="0 0 22 24">
<path d="M17.0875 7.92346H4.91266C4.64184 7.92346 4.42231 8.14299 4.42231 8.41382V18.6234C4.42231 18.8942 4.64184 19.1138 4.91266 19.1138H7.08316V22.5545C7.08316 23.3528 7.7303 24 8.52866 24C9.32696 24 9.97417 23.3528 9.97417 22.5545V19.1138H11.9959V22.5545C11.9959 23.3528 12.6431 24 13.4414 24C14.2397 24 14.887 23.3528 14.887 22.5545V19.1138H17.0876C17.3584 19.1138 17.5779 18.8942 17.5779 18.6234V8.41382C17.5779 8.14299 17.3584 7.92346 17.0875 7.92346Z" fill="#999999"/>
<path d="M2.36107 7.92114C1.56277 7.92114 0.915565 8.56829 0.915565 9.36665V15.2377C0.915565 16.036 1.56271 16.6832 2.36107 16.6832C3.15937 16.6832 3.80658 16.0361 3.80658 15.2377V9.36665C3.80652 8.56835 3.15937 7.92114 2.36107 7.92114Z" fill="#999999"/>
<path d="M19.6391 7.92114C18.8408 7.92114 18.1936 8.56829 18.1936 9.36665V15.2377C18.1936 16.036 18.8407 16.6832 19.6391 16.6832C20.4374 16.6832 21.0846 16.0361 21.0846 15.2377V9.36665C21.0846 8.56835 20.4374 7.92114 19.6391 7.92114Z" fill="#999999"/>
<path d="M5.01118 7.20744H16.9603C17.272 7.20744 17.5045 6.92029 17.4404 6.61519C17.0452 4.73138 15.8458 3.14384 14.2184 2.22674L15.2399 0.383655C15.309 0.258873 15.2639 0.101618 15.1391 0.0324888C15.0141 -0.0368151 14.857 0.00843865 14.7879 0.13322L13.7587 1.99019C12.9157 1.599 11.9762 1.38051 10.9857 1.38051C9.99513 1.38051 9.05567 1.599 8.21269 1.99019L7.18348 0.133162C7.11429 0.00832247 6.95704 -0.0366989 6.83231 0.0324307C6.70753 0.10156 6.66245 0.258815 6.73158 0.383597L7.75307 2.22668C6.12562 3.14384 4.92625 4.73132 4.531 6.61519C4.46692 6.92029 4.6994 7.20744 5.01118 7.20744ZM14.5512 4.46067C14.5512 4.76751 14.3024 5.01632 13.9955 5.01632C13.6887 5.01632 13.4399 4.76757 13.4399 4.46067C13.4399 4.15383 13.6886 3.90502 13.9955 3.90502C14.3024 3.90502 14.5512 4.15383 14.5512 4.46067ZM7.97579 3.90502C8.28264 3.90502 8.53145 4.15377 8.53145 4.46067C8.53145 4.76751 8.2827 5.01632 7.97579 5.01632C7.66895 5.01632 7.42014 4.76757 7.42014 4.46067C7.42014 4.15383 7.66889 3.90502 7.97579 3.90502Z" fill="#999999"/>
</symbol><symbol id="icon-apple" viewBox="0 0 20 24">
<rect width="20" height="24" fill="#E5E5E5"/>
<g clip-path="url(#clip0)">
<rect width="1920" height="4232" transform="translate(-880 -3550)" fill="white"/>
<rect x="-880" y="-62" width="1920" height="407" fill="black"/>
<path d="M16.2518 12.7632C16.2247 9.73112 18.7258 8.25602 18.8402 8.18735C17.4237 6.11487 15.2281 5.83171 14.4566 5.80913C12.6126 5.61439 10.824 6.91639 9.88463 6.91639C8.92655 6.91639 7.48006 5.82794 5.92107 5.85993C3.91491 5.89098 2.03812 7.05656 1.00879 8.86657C-1.11548 12.5571 0.468818 17.9806 2.50404 20.9637C3.52211 22.4256 4.71175 24.0559 6.26886 23.9985C7.79223 23.9364 8.36127 23.0248 10.1996 23.0248C12.0211 23.0248 12.5554 23.9985 14.1435 23.9618C15.7784 23.9364 16.8078 22.4943 17.7902 21.0201C18.9667 19.3465 19.4392 17.6964 19.4579 17.6118C19.4204 17.5986 16.2837 16.3963 16.2518 12.7632V12.7632ZM13.252 3.84673C14.0713 2.81849 14.6319 1.41959 14.4763 0C13.2904 0.052682 11.8074 0.823156 10.9533 1.82882C10.1977 2.715 9.52277 4.16752 9.69714 5.53349C11.0293 5.63321 12.397 4.85897 13.252 3.84673V3.84673Z" fill="#999999"/>
</g>

</symbol><symbol id="icon-arrow-bottomline" viewBox="0 0 2 6">
<path d="M0.333344 2.8572L0.333344 5.28577L1.66668 3.00005L0.333344 0.714338L0.333344 2.8572Z" fill="#282923"/>
</symbol><symbol id="icon-arrow-select" viewBox="0 0 13 9"><path d="M1 1.394l5.5 5.5 5.5-5.5" stroke="#282923" stroke-width="2"/></symbol><symbol id="icon-arrow" viewBox="0 0 10 6"><path d="M1 1l4 4 4-4" stroke="#282923"/></symbol><symbol id="icon-comments" viewBox="0 0 24 24">
<path d="M0.5 3.63121C0.5 1.80831 1.70439 0.5 3 0.5H21C22.2956 0.5 23.5 1.80831 23.5 3.63121V15.7352C23.5 17.5581 22.2956 18.8664 21 18.8664H5C4.64629 18.8664 4.31237 19.0277 4.03199 19.2148C3.7419 19.4083 3.44829 19.6709 3.16383 19.9592C2.59524 20.5356 2.00508 21.2752 1.48753 21.9252C1.10224 22.4091 0.768397 22.828 0.5 23.1247V3.63121ZM0.0765704 23.5191C0.0766193 23.519 0.0786302 23.5179 0.082455 23.5163C0.0784337 23.5185 0.0765214 23.5192 0.0765704 23.5191Z" stroke="#565656"/>
</symbol><symbol id="icon-contracts" viewBox="0 0 68 68">
<path d="M2.5 61.8563V5.77783C2.5 4.88546 2.85558 4.02963 3.48851 3.39862C4.12145 2.76762 4.97989 2.41312 5.875 2.41312H38.5V12.5073C38.5 12.729 38.5661 12.9458 38.6897 13.1302C38.8133 13.3146 38.989 13.4584 39.1945 13.5432C39.4 13.6281 39.6262 13.6503 39.8444 13.607C40.0626 13.5638 40.263 13.457 40.4204 13.3002L43 10.7284L45.5796 13.3002C45.737 13.457 45.9374 13.5638 46.1556 13.607C46.3738 13.6503 46.6 13.6281 46.8055 13.5432C47.011 13.4584 47.1867 13.3146 47.3103 13.1302C47.4339 12.9458 47.5 12.729 47.5 12.5073V2.61949C48.1558 2.85063 48.7239 3.27811 49.1267 3.84346C49.5294 4.40881 49.7471 5.08441 49.75 5.77783V24.8445H52V5.77783C51.9982 4.29109 51.405 2.86574 50.3505 1.81445C49.296 0.763161 47.8663 0.171764 46.375 0.169983H5.875C4.38371 0.171764 2.954 0.763161 1.8995 1.81445C0.844992 2.86574 0.251786 4.29109 0.25 5.77783V61.8563C0.251786 63.3431 0.844992 64.7684 1.8995 65.8197C2.954 66.871 4.38371 67.4624 5.875 67.4642H40.75V65.221H5.875C4.97989 65.221 4.12145 64.8666 3.48851 64.2355C2.85558 63.6045 2.5 62.7487 2.5 61.8563ZM45.25 2.41312V9.79978L43.7954 8.34959C43.5844 8.13933 43.2983 8.02121 43 8.02121C42.7017 8.02121 42.4156 8.13933 42.2046 8.34959L40.75 9.79978V2.41312H45.25Z" fill="#565656"/>
<path d="M49.4204 27.4163C49.2094 27.2059 48.9233 27.0877 48.625 27.0876H39.625V29.3308H48.1592L50.4092 31.5739H14.875C14.7005 31.5738 14.5283 31.6141 14.3721 31.6917L9.87213 33.9348C9.68511 34.028 9.52784 34.1713 9.41795 34.3486C9.30806 34.5259 9.2499 34.7302 9.25 34.9386H4.75V37.1818H9.25C9.24885 37.3911 9.30652 37.5967 9.41647 37.7751C9.52641 37.9534 9.68426 38.0976 9.87213 38.1912L14.3721 40.4343C14.5288 40.51 14.7009 40.5484 14.875 40.5465H57.625C57.9234 40.5465 58.2095 40.4283 58.4205 40.218C58.6315 40.0076 58.75 39.7224 58.75 39.4249H64.375C64.6734 39.4249 64.9595 39.3067 65.1705 39.0964C65.3815 38.8861 65.5 38.6008 65.5 38.3033V33.8171C65.5 33.5196 65.3815 33.2343 65.1705 33.024C64.9595 32.8137 64.6734 32.6955 64.375 32.6955H58.75C58.75 32.398 58.6315 32.1128 58.4205 31.9024C58.2095 31.6921 57.9234 31.5739 57.625 31.5739H53.5908L49.4204 27.4163ZM17.125 33.8171H49.75V38.3033H17.125V33.8171ZM11.5 36.4886V35.6318L14.875 33.9494V38.171L11.5 36.4886ZM63.25 34.9386V37.1818H58.75V34.9386H63.25ZM56.5 38.3033H52V33.8171H56.5V38.3033Z" fill="#565656"/>
<path d="M13.75 15.8719H9.25V18.1151H13.75V15.8719Z" fill="#565656"/>
<path d="M43 15.8719H16V18.1151H43V15.8719Z" fill="#565656"/>
<path d="M43 22.6014H9.25V24.8445H43V22.6014Z" fill="#565656"/>
<path d="M65.5 45.0328H45.25C44.6533 45.0328 44.081 45.2691 43.659 45.6898C43.2371 46.1104 43 46.681 43 47.2759V65.221C43 65.816 43.2371 66.3865 43.659 66.8072C44.081 67.2278 44.6533 67.4642 45.25 67.4642H65.5C66.0967 67.4642 66.669 67.2278 67.091 66.8072C67.5129 66.3865 67.75 65.816 67.75 65.221V47.2759C67.75 46.681 67.5129 46.1104 67.091 45.6898C66.669 45.2691 66.0967 45.0328 65.5 45.0328ZM65.5 49.5191H58.75V47.2759H65.5V49.5191ZM56.5 47.2759V54.0053H54.25V47.2759H56.5ZM52 47.2759V49.5191H45.25V47.2759H52ZM45.25 65.221V51.7622H52V55.1269C52 55.4244 52.1185 55.7096 52.3295 55.92C52.5405 56.1303 52.8266 56.2485 53.125 56.2485H57.625C57.9234 56.2485 58.2095 56.1303 58.4205 55.92C58.6315 55.7096 58.75 55.4244 58.75 55.1269V51.7622H65.5V65.221H45.25Z" fill="#565656"/>
<path d="M63.25 60.7347H58.75V62.9779H63.25V60.7347Z" fill="#565656"/>
<path d="M56.5 60.7347H54.25V62.9779H56.5V60.7347Z" fill="#565656"/>
<path d="M25 45.0328H9.25V47.2759H25V45.0328Z" fill="#565656"/>
<path d="M31.75 45.0328H27.25V47.2759H31.75V45.0328Z" fill="#565656"/>
<path d="M38.5 51.7622H9.25V54.0053H38.5V51.7622Z" fill="#565656"/>
</symbol><symbol id="icon-facebook" viewBox="0 0 14 24">
<path d="M12.9988 0.00499355L9.88661 0C6.39012 0 4.13054 2.31826 4.13054 5.90637V8.6296H1.00133C0.73093 8.6296 0.511963 8.84882 0.511963 9.11922V13.0649C0.511963 13.3353 0.73118 13.5542 1.00133 13.5542H4.13054V23.5104C4.13054 23.7808 4.34951 23.9998 4.61991 23.9998H8.70264C8.97304 23.9998 9.192 23.7805 9.192 23.5104V13.5542H12.8508C13.1212 13.5542 13.3401 13.3353 13.3401 13.0649L13.3416 9.11922C13.3416 8.98939 13.29 8.86505 13.1983 8.77317C13.1067 8.68129 12.9819 8.6296 12.852 8.6296H9.192V6.32108C9.192 5.21152 9.45641 4.64825 10.9018 4.64825L12.9983 4.6475C13.2685 4.6475 13.4875 4.42828 13.4875 4.15813V0.494361C13.4875 0.22446 13.2687 0.0054929 12.9988 0.00499355Z" fill="#999999"/>
</symbol><symbol id="icon-hammer-truck" viewBox="0 0 64 64">
<path d="M40.0157 44.627C39.4969 44.627 39.0763 45.0475 39.0763 45.5663C39.0763 46.7058 38.1493 47.6328 37.0098 47.6328C35.8703 47.6328 34.9432 46.7058 34.9432 45.5663C34.9432 44.4268 35.8703 43.4998 37.0098 43.4998C37.5285 43.4998 37.9491 43.0792 37.9491 42.5604C37.9491 42.0417 37.5285 41.6211 37.0098 41.6211C34.8344 41.6211 33.0646 43.3909 33.0646 45.5663C33.0646 47.7417 34.8344 49.5115 37.0098 49.5115C39.1852 49.5115 40.955 47.7417 40.955 45.5663C40.955 45.0475 40.5344 44.627 40.0157 44.627Z" fill="#565656"/>
<path d="M17.9726 44.627C17.4539 44.627 17.0333 45.0475 17.0333 45.5663C17.0333 46.7058 16.1062 47.6328 14.9668 47.6328C13.8273 47.6328 12.9002 46.7058 12.9002 45.5663C12.9002 44.4268 13.8273 43.4998 14.9668 43.4998C15.4855 43.4998 15.9061 43.0792 15.9061 42.5604C15.9061 42.0417 15.4855 41.6211 14.9668 41.6211C12.7914 41.6211 11.0215 43.3909 11.0215 45.5663C11.0215 47.7417 12.7914 49.5115 14.9668 49.5115C17.1421 49.5115 18.912 47.7417 18.912 45.5663C18.912 45.0475 18.4914 44.627 17.9726 44.627Z" fill="#565656"/>
<path d="M63.0607 18.5763H61.9961V17.2945C63.1596 16.9015 64 15.8004 64 14.5058C64 14.1266 63.7721 13.7846 63.422 13.6388L41.194 4.37706C39.788 3.79129 38.1592 3.89274 36.8367 4.64847L3.67292 23.5992C2.17725 23.7371 1.00196 24.9983 1.00196 26.5293V27.5939H0.939335C0.420571 27.5939 0 28.0145 0 28.5332V44.9635C0 46.914 1.45622 48.593 3.38724 48.8691L7.82015 49.5023C7.86524 49.5087 7.90995 49.5118 7.95416 49.5118C7.99048 49.5118 8.02618 49.509 8.06162 49.505C9.43342 51.9006 12.0137 53.5197 14.9666 53.5197C17.9195 53.5197 20.4998 51.9008 21.8716 49.5051C21.9073 49.5092 21.9435 49.5118 21.9803 49.5118H29.996C30.0328 49.5118 30.069 49.5092 30.1047 49.5051C31.4765 51.9008 34.0568 53.5197 37.0097 53.5197C41.395 53.5197 44.9627 49.952 44.9627 45.5666V35.7976C44.9627 34.8245 44.7206 33.8565 44.2628 32.998L37.5734 20.455H38.0117C38.5305 20.455 38.9511 20.0344 38.9511 19.5156C38.9511 18.9969 38.5305 18.5763 38.0117 18.5763H36.015C36.0143 18.5763 36.0137 18.5763 36.0131 18.5763H31.6373L33.7475 16.7298C34.5854 17.3276 35.6174 17.5681 36.6692 17.3944C38.2108 17.1399 39.487 15.9457 39.8451 14.4228C40.0456 13.5704 39.9654 12.706 39.6134 11.9214C39.6191 11.9059 39.6348 11.8808 39.6603 11.8637L40.1363 11.5464L55.1076 17.1608V18.82C54.5108 19.1515 54.1057 19.7879 54.1057 20.5177V34.5451V38.5529C54.1057 39.6234 54.9765 40.4942 56.047 40.4942H56.1096V44.5647C56.1096 45.0834 56.5302 45.504 57.0489 45.504C57.5677 45.504 57.9883 45.0834 57.9883 44.5647V40.4942H58.0509C59.1213 40.4942 59.9922 39.6234 59.9922 38.5529V34.9341L62.7229 32.2034C62.8991 32.0273 62.998 31.7883 62.998 31.5392V20.4551H63.0607C63.5794 20.4551 64 20.0345 64 19.5158C64 18.997 63.5794 18.5763 63.0607 18.5763ZM56.9863 18.5763V17.4491H60.1174V18.5763H56.9863ZM26.2009 20.8368L21.9178 24.5845V23.6922L26.2009 20.8368ZM20.0391 26.2284L15.9061 29.8448V27.7001L20.0391 24.9447V26.2284ZM14.0274 31.4886L11.5603 33.6474L9.90096 30.3286C9.74716 30.021 9.56431 29.7353 9.3579 29.4727H12.9628C13.1482 29.4727 13.3295 29.4178 13.4838 29.3149L14.0274 28.9526V31.4886ZM14.0274 37.6708C13.8847 37.6877 13.7433 37.7085 13.6031 37.7328L12.4189 35.3645C12.475 35.333 12.5291 35.2959 12.5794 35.2519L14.0274 33.985V37.6708ZM8.06174 41.6281C8.02605 41.6239 7.98986 41.6213 7.95303 41.6213H1.87867V29.4726H5.47607C6.64573 29.4726 7.69741 30.1225 8.22068 31.1688L11.7778 38.283C10.2102 38.9721 8.90677 40.1523 8.06174 41.6281ZM2.88063 26.5293C2.88063 25.9423 3.35818 25.4647 3.94521 25.4647C4.53223 25.4647 5.00978 25.9423 5.00978 26.5293V27.5939H2.88063V26.5293ZM3.65301 47.0092C2.64141 46.8648 1.87867 45.9853 1.87867 44.9635V43.5H7.28761C7.11001 44.1594 7.0137 44.8517 7.0137 45.5665C7.0137 46.242 7.09899 46.8976 7.25818 47.5242L3.65301 47.0092ZM14.9667 51.6409C11.6173 51.6409 8.89237 48.9159 8.89237 45.5665C8.89237 42.2171 11.6173 39.4921 14.9667 39.4921C18.3161 39.4921 21.0411 42.2171 21.0411 45.5665C21.0411 48.9159 18.3161 51.6409 14.9667 51.6409ZM22.6459 47.633C22.8235 46.9736 22.9198 46.2813 22.9198 45.5665C22.9198 44.8517 22.8235 44.1594 22.6459 43.5H29.3308C29.1532 44.1594 29.0569 44.8517 29.0569 45.5665C29.0569 46.2813 29.1532 46.9736 29.3308 47.633H22.6459ZM37.0098 51.6409C33.6604 51.6409 30.9354 48.9159 30.9354 45.5665C30.9354 42.2171 33.6604 39.4921 37.0098 39.4921C40.3592 39.4921 43.0841 42.2171 43.0841 45.5665C43.0841 48.9159 40.3592 51.6409 37.0098 51.6409ZM37.0098 37.6135C34.0569 37.6135 31.4766 39.2324 30.1048 41.6281C30.0691 41.6239 30.0329 41.6213 29.9961 41.6213H21.9804C21.9436 41.6213 21.9074 41.6239 21.8717 41.6281C20.6476 39.4904 18.4611 37.9731 15.9061 37.6708V32.3412L20.0475 28.7174C20.1685 30.9369 21.7411 32.8568 23.8012 33.2439C23.8225 33.248 23.8441 33.2512 23.8657 33.2537L42.9127 35.4779C42.9498 35.4823 42.9865 35.4843 43.0228 35.4843C43.0388 35.4843 43.0545 35.4829 43.0704 35.4821C43.0786 35.5869 43.0843 35.692 43.0843 35.7973V40.4409C41.6242 38.7134 39.4435 37.6135 37.0098 37.6135ZM35.4442 20.455L42.4168 33.5286L24.1189 31.3918C22.8822 31.1423 21.9178 29.8536 21.9178 28.4427V27.0809L29.4902 20.455H35.4442ZM39.4946 9.71649L38.6183 10.3006C37.8281 10.8274 37.5171 11.8505 37.8949 12.6807C38.083 13.0941 38.1238 13.5356 38.0163 13.9928C37.8325 14.7739 37.1528 15.4105 36.3631 15.5409C35.9735 15.6052 35.5899 15.5613 35.2438 15.4206L36.6264 14.2109C37.0168 13.8692 37.0564 13.2758 36.7148 12.8854C36.3732 12.495 35.7798 12.4555 35.3894 12.797L33.5719 14.3872C33.0757 14.2674 32.5473 14.3482 32.0992 14.6469L12.6784 27.5939H6.88845V26.5293C6.88845 25.708 6.54992 24.9644 6.00535 24.43L37.7689 6.27953C38.5891 5.81074 39.5993 5.74774 40.4714 6.11132L61.962 15.0657C61.7742 15.3684 61.4386 15.5704 61.0568 15.5704H56.2173L40.3454 9.61855C40.0626 9.51234 39.746 9.54891 39.4946 9.71649ZM58.0509 38.6154H56.047C56.0124 38.6154 55.9843 38.5874 55.9843 38.5528V35.4843H58.1135V38.5528C58.1135 38.5874 58.0854 38.6154 58.0509 38.6154ZM61.1194 31.1501L58.6638 33.6056H55.9843V20.5176C55.9843 20.483 56.0124 20.455 56.047 20.455H61.1194V31.1501Z" fill="#565656"/>
</symbol><symbol id="icon-hosts" viewBox="0 0 72 73">
<g clip-path="url(#clip0)">
<path d="M55.4504 44.535L50.0128 49.9726L51.6462 51.606L54.2951 48.9571V58.8758H56.6056V48.9571L59.2545 51.606L60.888 49.9726L55.4504 44.535Z" fill="#565656"/>
<path d="M29.6971 11.8506L28.0637 13.4841L30.7126 16.133H13.8626V18.4435H30.7126L28.0637 21.0924L29.6971 22.7258L35.1347 17.2882L29.6971 11.8506Z" fill="#565656"/>
<path d="M4.62085 49.6341V65.8071H25.4147V49.6341H4.62085ZM23.1043 63.4967H6.93128V51.9445H23.1043V63.4967Z" fill="#565656"/>
<path d="M40.4326 49.6341H28.8804V51.9445H40.4326V49.6341Z" fill="#565656"/>
<path d="M40.4326 54.2549H28.8804V56.5654H40.4326V54.2549Z" fill="#565656"/>
<path d="M40.4326 58.8758H28.8804V61.1862H40.4326V58.8758Z" fill="#565656"/>
<path d="M40.4326 63.4966H28.8804V65.8071H40.4326V63.4966Z" fill="#565656"/>
<path d="M70.4301 37.2074C69.5948 34.2824 67.2232 32.0944 64.2416 31.4995L57.7608 30.2033V29.9007C59.898 28.66 61.4898 26.5898 62.0998 24.1315C64.2312 23.7203 65.8473 21.8477 65.8473 19.5984V11.654C65.8473 8.46794 63.7853 5.68503 60.7805 4.73659C59.0985 2.46082 56.4439 1.11499 53.5963 1.11499C46.3369 1.11499 40.4326 7.0193 40.4326 14.2787V19.5984C40.4326 21.8477 42.0487 23.7203 44.1801 24.1315C44.79 26.5898 46.3819 28.66 48.5191 29.9007V30.2033L42.0406 31.4995C39.5742 31.9928 37.5399 33.5835 36.4321 35.7715H0V72.7384H46.2086V42.7028H72L70.4301 37.2074ZM62.3817 21.5877V17.6092C63.069 18.01 63.5369 18.7471 63.5369 19.5984C63.5369 20.4498 63.069 21.1869 62.3817 21.5877ZM43.8982 21.5877C43.2109 21.1869 42.743 20.4498 42.743 19.5984C42.743 18.7471 43.2109 18.01 43.8982 17.6092V21.5877ZM42.743 15.6199V14.2775C42.743 8.29466 47.6111 3.42542 53.5963 3.42542C55.8166 3.42542 57.8786 4.52865 59.1101 6.377L59.3573 6.74782L59.7905 6.85641C61.997 7.40745 63.5369 9.38056 63.5369 11.654V15.6199C62.8542 15.2225 62.0721 14.9776 61.2265 14.9776C58.4944 14.9776 55.7865 14.0754 53.6009 12.4361L51.8761 11.1423L50.1526 12.8658C48.7906 14.2278 46.9803 14.9776 45.0534 14.9776C44.2078 14.9776 43.4257 15.2225 42.743 15.6199ZM46.2086 21.9089V17.2106C48.3146 16.9576 50.2635 16.0219 51.786 14.4993L52.0933 14.192L52.2158 14.2833C54.4892 15.9884 57.2421 17.0177 60.0712 17.2407V21.9089C60.0712 25.7315 56.9626 28.8402 53.1399 28.8402C49.3173 28.8402 46.2086 25.7315 46.2086 21.9089ZM43.8982 70.428H2.31043V47.3236H43.8982V70.428ZM43.8982 45.0132H2.31043V38.0819H35.6003L34.2799 42.7028H43.8982V45.0132ZM63.2827 40.3923L62.3459 36.6471L60.1047 37.2063L60.9018 40.3923H45.378L46.174 37.2063L43.9329 36.6471L42.996 40.3923H37.3424L38.0725 37.8416C38.6697 35.7518 40.3633 34.1911 42.4935 33.7649L50.8295 32.0979V30.8456C51.57 31.0386 52.3405 31.1506 53.1399 31.1506C53.9394 31.1506 54.7099 31.0386 55.4504 30.8468V32.099L63.7876 33.7649C65.9178 34.1911 67.6113 35.753 68.2086 37.8416L68.9364 40.3923H63.2827Z" fill="#565656"/>
<path d="M6.93128 40.3923H4.62085V42.7028H6.93128V40.3923Z" fill="#565656"/>
<path d="M11.5522 40.3923H9.24173V42.7028H11.5522V40.3923Z" fill="#565656"/>
<path d="M16.173 40.3923H13.8626V42.7028H16.173V40.3923Z" fill="#565656"/>
<path d="M2.31043 16.1328H0V18.4432H2.31043V16.1328Z" fill="#565656"/>
<path d="M6.93128 16.1328H4.62085V18.4432H6.93128V16.1328Z" fill="#565656"/>
<path d="M11.5522 16.1328H9.24173V18.4432H11.5522V16.1328Z" fill="#565656"/>
<path d="M56.6056 70.428H54.2952V72.7384H56.6056V70.428Z" fill="#565656"/>
<path d="M56.6056 65.8071H54.2952V68.1176H56.6056V65.8071Z" fill="#565656"/>
<path d="M56.6056 61.1862H54.2952V63.4967H56.6056V61.1862Z" fill="#565656"/>
</g>

</symbol><symbol id="icon-instagram" viewBox="0 0 24 24">
<path d="M23.0949 0.906398C22.4907 0.302041 21.7667 0 20.9232 0H3.07924C2.23545 0 1.51162 0.302151 0.907265 0.906398C0.303018 1.51048 0.000976562 2.23442 0.000976562 3.07804V20.9218C0.000976562 21.7653 0.302963 22.4894 0.907265 23.0935C1.51162 23.6977 2.23561 24 3.07924 24H20.9229C21.7663 24 22.4905 23.6977 23.0947 23.0935C23.6991 22.4894 24.0009 21.7653 24.0009 20.9218V3.07804C24.0008 2.23425 23.6991 1.5107 23.0949 0.906398ZM8.61843 8.64832C9.56106 7.737 10.6939 7.28112 12.0168 7.28112C13.35 7.28112 14.488 7.737 15.4308 8.64832C16.3737 9.55981 16.8448 10.6615 16.8448 11.9531C16.8448 13.2446 16.3737 14.3463 15.4308 15.2575C14.488 16.1692 13.3504 16.625 12.0168 16.625C10.694 16.625 9.56122 16.1688 8.61843 15.2575C7.67558 14.3462 7.20422 13.2446 7.20422 11.9531C7.20422 10.6615 7.67558 9.55986 8.61843 8.64832ZM21.2825 20.2814C21.2825 20.5521 21.1885 20.7785 21.0012 20.9609C20.8133 21.1432 20.5897 21.2343 20.329 21.2343H3.62618C3.35539 21.2343 3.12866 21.1432 2.94652 20.9609C2.76412 20.7789 2.67299 20.5521 2.67299 20.2814V10.1561H4.87605C4.66781 10.8124 4.56367 11.4948 4.56367 12.203C4.56367 14.2034 5.29275 15.9089 6.75107 17.3206C8.20956 18.7318 9.96473 19.4377 12.0168 19.4377C13.371 19.4377 14.6209 19.1147 15.7671 18.4689C16.9129 17.8227 17.8186 16.9453 18.4858 15.8359C19.1525 14.7264 19.4858 13.5154 19.4858 12.203C19.4858 11.4949 19.3813 10.8126 19.1731 10.1561H21.2827V20.2815H21.2825V20.2814ZM21.2825 6.32793C21.2825 6.63002 21.1784 6.88527 20.9697 7.09357C20.7615 7.30202 20.5064 7.40611 20.2041 7.40611H17.4855C17.1836 7.40611 16.9281 7.30197 16.7199 7.09357C16.5116 6.88527 16.4075 6.63002 16.4075 6.32793V3.75004C16.4075 3.45834 16.5116 3.20578 16.7199 2.99217C16.9282 2.77868 17.1836 2.6718 17.4855 2.6718H20.2041C20.5064 2.6718 20.7615 2.77863 20.9697 2.99217C21.1783 3.20578 21.2825 3.45834 21.2825 3.75004V6.32793Z" fill="#999999"/>
</symbol><symbol id="icon-like-white" viewBox="0 0 17 16">
<path d="M16.4862 8.02806C16.6274 7.14171 16.2614 6.23962 15.5555 5.73088C15.1529 5.44242 14.6823 5.29033 14.1908 5.29033H10.7241V2.80434C10.7241 1.70295 10.3999 0.905761 9.76204 0.438982C8.7529 -0.305764 7.37251 0.119056 7.31499 0.13479C7.1163 0.197726 6.98559 0.381291 6.98559 0.585834V3.45468C6.98559 5.6627 4.41828 6.41794 4.3137 6.44941C4.30325 6.45465 4.29279 6.4599 4.28233 6.4599C4.12547 6.21864 3.85357 6.05605 3.53985 6.05605H0.883655C0.397383 6.05605 0 6.45465 0 6.94241V14.6888C0 15.1766 0.397383 15.5752 0.883655 15.5752H3.53985C3.7856 15.5752 4.00521 15.4755 4.1673 15.3129C4.59083 15.7378 5.17644 16 5.82481 16H12.8208C14.4052 16 15.4143 15.1661 15.5973 13.7133L16.4862 8.02806ZM15.5502 7.88121L14.6561 13.5769C14.6561 13.5822 14.6561 13.5874 14.6561 13.5927C14.5359 14.563 13.9189 15.056 12.8208 15.056H5.82481C5.05095 15.056 4.42351 14.4266 4.42351 13.6504V7.38296C4.47057 7.38296 4.51762 7.38296 4.56468 7.36723C4.70063 7.33051 7.93199 6.39171 7.93199 3.45468V0.973942C8.27708 0.926739 8.81041 0.91625 9.2078 1.20471C9.58949 1.48792 9.77773 2.02288 9.77773 2.80434V5.76759C9.77773 6.02983 9.99211 6.24486 10.2535 6.24486H14.196C14.4888 6.24486 14.7712 6.33402 15.0065 6.5071C15.4195 6.80605 15.6339 7.34625 15.5502 7.88121Z" fill="#FFFFFF"/>
</symbol><symbol id="icon-like" viewBox="0 0 17 16">
<path d="M16.4862 8.02806C16.6274 7.14171 16.2614 6.23962 15.5555 5.73088C15.1529 5.44242 14.6823 5.29033 14.1908 5.29033H10.7241V2.80434C10.7241 1.70295 10.3999 0.905761 9.76204 0.438982C8.7529 -0.305764 7.37251 0.119056 7.31499 0.13479C7.1163 0.197726 6.98559 0.381291 6.98559 0.585834V3.45468C6.98559 5.6627 4.41828 6.41794 4.3137 6.44941C4.30325 6.45465 4.29279 6.4599 4.28233 6.4599C4.12547 6.21864 3.85357 6.05605 3.53985 6.05605H0.883655C0.397383 6.05605 0 6.45465 0 6.94241V14.6888C0 15.1766 0.397383 15.5752 0.883655 15.5752H3.53985C3.7856 15.5752 4.00521 15.4755 4.1673 15.3129C4.59083 15.7378 5.17644 16 5.82481 16H12.8208C14.4052 16 15.4143 15.1661 15.5973 13.7133L16.4862 8.02806ZM15.5502 7.88121L14.6561 13.5769C14.6561 13.5822 14.6561 13.5874 14.6561 13.5927C14.5359 14.563 13.9189 15.056 12.8208 15.056H5.82481C5.05095 15.056 4.42351 14.4266 4.42351 13.6504V7.38296C4.47057 7.38296 4.51762 7.38296 4.56468 7.36723C4.70063 7.33051 7.93199 6.39171 7.93199 3.45468V0.973942C8.27708 0.926739 8.81041 0.91625 9.2078 1.20471C9.58949 1.48792 9.77773 2.02288 9.77773 2.80434V5.76759C9.77773 6.02983 9.99211 6.24486 10.2535 6.24486H14.196C14.4888 6.24486 14.7712 6.33402 15.0065 6.5071C15.4195 6.80605 15.6339 7.34625 15.5502 7.88121Z" fill="#F1692B"/>
</symbol><symbol id="icon-lots" viewBox="0 0 72 73">
<path d="M72 31.1204H69.3905L65.5012 33.1668C65.0634 32.9252 64.6081 32.7205 64.1171 32.5975L59.2247 31.3733V30.817C61.389 29.3064 62.7097 26.8109 62.7097 24.1526V22.1226C62.7097 17.6113 59.1748 13.836 54.8301 13.7044C54.6096 13.6987 54.3924 13.7067 54.1741 13.7175L55.4425 10.7479L49.293 4.60008L45.668 6.95952C44.2906 6.18381 42.8339 5.57992 41.3211 5.15634L40.4257 0.926819H31.5754L30.6801 5.15748C29.1672 5.58105 27.7094 6.18495 26.3332 6.96065L22.7081 4.60121L16.5637 10.7456L17.8106 13.7175C17.763 13.7152 17.7176 13.7067 17.67 13.7055C15.4461 13.6409 13.3514 14.4523 11.7603 15.9969C10.167 17.5404 9.29032 19.6118 9.29032 21.83V24.1526C9.29032 26.8109 10.6098 29.3053 12.7742 30.8159V31.3733L9.58291 32.1711L3.79858 28.7978H0V52.8611L11.4246 56.6688H13.6497L13.9275 55.6957L17.4296 57.7977C17.4868 59.7018 19.0139 61.234 20.9163 61.3009C20.9832 63.1953 22.5057 64.7178 24.4001 64.7847C24.467 66.6792 25.9895 68.2017 27.884 68.2686C27.9532 70.2073 29.5409 71.7655 31.4955 71.7655C32.2213 71.7655 32.9329 71.5393 33.5311 71.1361L34.5597 72.0445C35.2044 72.6121 36.0346 72.9268 36.8965 72.9268H37.1114C39.0438 72.9268 40.6162 71.3646 40.6406 69.4384C42.5521 69.414 44.1001 67.866 44.1245 65.9545C46.0371 65.9302 47.5863 64.3799 47.6084 62.4673C49.5386 62.4219 51.0968 60.845 51.0968 58.904C51.0968 58.7872 51.0911 58.6721 51.0792 58.5559L72 48.0963V31.1204ZM60.3871 22.1226V24.1526C60.3871 26.2138 59.2734 28.1395 57.4805 29.1777L56.8998 29.5134L56.9044 33.1883L62.7063 34.6377L49.9355 41.3593V38.231C49.9355 36.6699 49.3049 35.2405 48.2724 34.1841L52.2581 33.1883V29.5105L51.6786 29.1754C49.8867 28.1395 48.7742 26.2138 48.7742 24.1526V21.83C48.7742 20.2463 49.4002 18.7652 50.5382 17.6623C51.6751 16.56 53.1835 15.9658 54.7604 16.027C57.8626 16.12 60.3871 18.8548 60.3871 22.1226ZM37.751 40.4464L32.494 38.7663C30.0983 37.9985 27.5052 37.884 25.0528 38.4272L24.3871 38.5746V38.231C24.3871 36.6297 25.473 35.2393 27.0255 34.8503L33.6774 33.1883V29.5105L33.0979 29.1754C31.3061 28.1395 30.1935 26.2138 30.1935 24.1526V21.83C30.1935 20.2463 30.8196 18.7652 31.9576 17.6623C33.0945 16.56 34.6125 15.9658 36.1797 16.027C39.282 16.12 41.8064 18.8548 41.8064 22.1226V24.1526C41.8064 26.2138 40.6928 28.1395 38.8998 29.1777L38.3192 29.5134L38.3237 33.1883L44.9745 34.8503C46.527 35.2393 47.6129 36.6297 47.6129 38.231V42.5824L47.326 42.7333H46.6143L39.4748 40.6931C38.9123 40.5337 38.3328 40.4685 37.751 40.4464ZM24.6474 18.3076C26.8282 14.0821 31.2176 11.3784 36 11.3784C40.737 11.3784 45.1077 14.0458 47.305 18.2141C46.7521 19.3226 46.4516 20.5502 46.4516 21.83V24.1526C46.4516 26.8109 47.7711 29.3053 49.9355 30.8159V31.3733L45.2903 32.5363L40.644 31.3733V30.817C42.8084 29.3064 44.129 26.8109 44.129 24.1526V22.1226C44.129 17.6113 40.5941 13.836 36.2495 13.7044C34.0267 13.6392 31.9309 14.4512 30.3398 15.9958C28.7476 17.5404 27.871 19.6118 27.871 21.83V24.1526C27.871 26.8109 29.1905 29.3053 31.3548 30.8159V31.3733L26.7097 32.5363L22.0634 31.3733V30.817C24.2278 29.3064 25.5484 26.8109 25.5484 24.1526V22.1226C25.5484 20.7561 25.2195 19.4587 24.6474 18.3076ZM19.3065 11.2843L23.0166 7.57418L26.2821 9.69944L26.907 9.31612C28.4726 8.3567 30.1646 7.65414 31.9355 7.23056L32.6499 7.05932L33.458 3.2494H38.5432L39.3489 7.05818L40.0634 7.22886C41.8342 7.653 43.5263 8.35556 45.0919 9.31499L45.7167 9.6983L48.9823 7.57305L52.6879 11.2798L51.3707 14.3639C50.4742 14.7495 49.6429 15.2921 48.9194 15.9935C48.8717 16.04 48.8309 16.0899 48.7844 16.1376C46.0485 11.7884 41.2116 9.05585 36 9.05585C30.7509 9.05585 25.9005 11.8139 23.1714 16.2073C22.441 15.4429 21.5723 14.8237 20.6095 14.3911L19.3065 11.2843ZM15.0968 33.1883V29.5105L14.5173 29.1754C12.7254 28.1395 11.6129 26.2138 11.6129 24.1526V21.83C11.6129 20.2463 12.2389 18.7652 13.377 17.6623C14.5139 16.56 16.0256 15.9658 17.5991 16.027C20.7014 16.12 23.2258 18.8548 23.2258 22.1226V24.1526C23.2258 26.2138 22.1121 28.1395 20.3192 29.1777L19.7385 29.5134L19.7431 33.1883L23.7276 34.1841C22.6951 35.2405 22.0645 36.6699 22.0645 38.231V39.0912L18.4423 39.8964L18.5364 39.5675L18.5806 37.4213L12.4561 33.8484L15.0968 33.1883ZM2.32258 31.1204H3.16917L11.521 35.9918L7.30683 52.8481L2.32258 51.1861V31.1204ZM11.8012 54.3462L9.51544 53.5846L13.6094 37.2103L16.2581 38.7549V39.0867L11.8987 54.3462H11.8012ZM19.7419 57.6894C19.7419 57.3469 19.8803 57.0112 20.123 56.7686L22.1643 54.7272C22.407 54.4845 22.7427 54.3462 23.0852 54.3462C23.803 54.3462 24.3871 54.9302 24.3871 55.6481C24.3871 55.9906 24.2487 56.3263 24.006 56.569L21.9647 58.6103C21.722 58.853 21.3863 58.9913 21.0438 58.9913C20.326 58.9913 19.7419 58.4073 19.7419 57.6894ZM23.2258 61.1733C23.2258 60.8308 23.3642 60.4951 23.6069 60.2524L25.6482 58.2111C25.8909 57.9684 26.2266 57.83 26.5691 57.83C27.2869 57.83 27.871 58.4141 27.871 59.132C27.871 59.4744 27.7326 59.8101 27.4899 60.0528L25.4486 62.0942C25.2059 62.3368 24.8702 62.4752 24.5277 62.4752C23.8099 62.4752 23.2258 61.8912 23.2258 61.1733ZM26.7097 64.6572C26.7097 64.3147 26.848 63.979 27.0907 63.7363L29.1321 61.695C29.3747 61.4523 29.7104 61.3139 30.0529 61.3139C30.7708 61.3139 31.3548 61.898 31.3548 62.6158C31.3548 62.9583 31.2165 63.294 30.9738 63.5367L28.9325 65.578C28.6898 65.8207 28.3541 65.9591 28.0116 65.9591C27.2937 65.9591 26.7097 65.375 26.7097 64.6572ZM31.4955 69.4429C30.7776 69.4429 30.1935 68.8589 30.1935 68.141C30.1935 67.7985 30.3319 67.4629 30.5746 67.2202L32.6159 65.1788C32.8586 64.9361 33.1943 64.7978 33.5368 64.7978C34.2547 64.7978 34.8387 65.3818 34.8387 66.0997C34.8387 66.4422 34.7004 66.7779 34.4577 67.0206L32.4163 69.0619C32.1736 69.3046 31.838 69.4429 31.4955 69.4429ZM37.1114 70.6042H36.8965C36.6005 70.6042 36.317 70.4965 36.0964 70.3009L35.2277 69.5348L36.0998 68.6627C36.4111 68.3514 36.6527 67.9811 36.8313 67.5836L37.8871 68.4625C38.1632 68.6928 38.3226 69.0318 38.3226 69.393C38.3226 70.061 37.7794 70.6042 37.1114 70.6042ZM47.5256 60.1526H47.3248C47.0334 60.1526 46.7487 60.0494 46.5259 59.8623L40.2284 54.6144L38.7405 56.3994L44.856 61.4948C45.131 61.725 45.2903 62.0641 45.2903 62.4253C45.2903 63.0933 44.7471 63.6365 44.0791 63.6365H43.8257C43.5438 63.6365 43.2683 63.5367 43.0511 63.3552L36.7434 58.0994L35.2555 59.8844L41.371 64.9804C41.6471 65.2089 41.8064 65.548 41.8064 65.9092C41.8064 66.5771 41.2632 67.1204 40.5953 67.1204C40.1496 67.1204 39.7152 66.9622 39.3733 66.6781L36.7814 64.5177C36.2104 63.3507 35.0372 62.537 33.6632 62.4882C33.5963 60.5938 32.0738 59.0713 30.1794 59.0044C30.1125 57.1099 28.59 55.5874 26.6955 55.5205C26.6275 53.5818 25.0398 52.0236 23.0852 52.0236C22.1309 52.0236 21.197 52.4103 20.5222 53.0851L18.4808 55.1264C18.3589 55.2483 18.258 55.3867 18.1554 55.5239L14.5881 53.3833L17.7153 42.4384L25.5552 40.6953C27.6118 40.2355 29.7802 40.3353 31.7858 40.9772L33.4965 41.5243L27.6969 44.4242C26.3717 45.0882 25.5484 46.4213 25.5484 47.9035V48.1332C25.5484 50.2783 27.2937 52.0236 29.4388 52.0236C30.1436 52.0236 30.8371 51.8319 31.4399 51.4685L35.7641 48.8754C36.6328 48.3549 37.7986 48.4688 38.5488 49.1436L48.3608 57.9741C48.6234 58.2122 48.7742 58.5502 48.7742 58.904C48.7742 59.593 48.2145 60.1526 47.5256 60.1526ZM69.6774 46.6606L50.113 56.4436C50.0495 56.3762 49.9831 56.3121 49.9134 56.2497L40.1031 47.4193C39.2434 46.6436 38.1321 46.2171 36.9742 46.2171C36.1276 46.2171 35.2963 46.4474 34.5682 46.884L30.2423 49.4782C29.9996 49.6245 29.7223 49.701 29.4388 49.701C28.5735 49.701 27.871 48.9985 27.871 48.1332V47.9035C27.871 47.3053 28.2033 46.7689 28.7374 46.5018L35.2152 43.2629C36.3238 42.7078 37.6399 42.5836 38.8346 42.9272L46.1324 45.0116L47.8998 45.0559L69.6774 33.5938V46.6606Z" fill="#565656"/>
</symbol><symbol id="icon-loupe" viewBox="0 0 13 13"><circle cx="5.74" cy="5.74" r="4.74" stroke="#282923" stroke-width="2" fill="none"/><path d="M12 12l-2.5-2.5" stroke="#282923" stroke-linecap="round" stroke-width="2" fill="none"/></symbol><symbol id="icon-partner" viewBox="0 0 24 20">
<path d="M23.8626 5.83133L18.5601 0.527862C18.381 0.348602 18.0917 0.344207 17.9073 0.518157C17.4955 0.906158 15.5599 2.72897 15.5319 2.75626C15.5302 2.7579 15.5284 2.75937 15.5268 2.76102C15.0683 3.21951 14.6169 3.42386 14.0632 3.42386C12.9312 3.42386 12.064 3.74356 11.3439 4.42563C10.7534 3.86642 10.0841 3.5773 9.1501 3.4808L6.80672 1.13724C6.62361 0.954131 6.3268 0.954131 6.14369 1.13724L0.137285 7.14383C-0.0410594 7.32199 -0.0469187 7.60983 0.126848 7.79532C0.13051 7.79916 0.133623 7.80301 0.137285 7.80667C0.137285 7.80667 4.04585 11.7092 4.05135 11.7145L3.88582 11.88C3.24495 12.5209 3.24459 13.5587 3.886 14.2002C4.18959 14.5034 4.60671 14.6836 5.06301 14.679C5.05806 15.1292 5.23201 15.5462 5.54329 15.8575C5.85951 16.1737 6.28212 16.3414 6.72029 16.3368C6.71553 16.7867 6.8893 17.2035 7.20058 17.5147C7.50417 17.818 7.9211 17.9981 8.37758 17.9936C8.37264 18.4438 8.54659 18.8607 8.85787 19.172C9.49745 19.8116 10.538 19.8116 11.1778 19.172L11.3437 19.0061L11.5096 19.172C12.1492 19.8116 13.1898 19.8116 13.8295 19.172C14.1401 18.8615 14.3144 18.4453 14.31 17.9945C14.7577 17.9991 15.1748 17.8268 15.487 17.5146C15.8111 17.1905 15.9708 16.7633 15.9664 16.3376C16.4209 16.3423 16.8361 16.1654 17.1441 15.8575C17.4559 15.5458 17.6295 15.1281 17.6244 14.679C18.06 14.6834 18.4835 14.5179 18.8016 14.2C19.4426 13.5589 19.4426 12.5213 18.8016 11.88L18.6362 11.7147C21.9045 8.4501 17.7702 12.5877 23.8626 6.49417C24.0457 6.31107 24.0457 6.01443 23.8626 5.83133ZM1.13173 7.47507L6.4753 2.13168L8.27614 3.93252L2.93367 9.27573L1.13173 7.47507ZM4.54866 13.5371C4.274 13.2625 4.274 12.8177 4.54866 12.5429L6.20613 10.8854C6.48042 10.6113 6.92629 10.6115 7.2004 10.8854C7.4756 11.1608 7.4756 11.6048 7.2004 11.88L5.54347 13.537C5.26918 13.8109 4.82277 13.8109 4.54866 13.5371ZM6.20613 15.1946C5.93129 14.9196 5.93093 14.475 6.20613 14.2L7.86324 12.5429C8.13844 12.2679 8.58266 12.2677 8.85787 12.5429C9.13198 12.817 9.13307 13.2619 8.85787 13.537C8.85768 13.5371 8.85768 13.5371 8.85768 13.5373L7.2004 15.1946C6.92629 15.4687 6.48024 15.4687 6.20613 15.1946ZM7.86324 16.8515C7.58858 16.5771 7.58858 16.1321 7.86324 15.8575L9.52071 14.2C9.79482 13.9259 10.2407 13.9259 10.5152 14.2003C10.7858 14.4704 10.7938 14.9154 10.515 15.1944C10.515 15.1944 10.515 15.1944 10.5148 15.1946L8.85805 16.8513C8.58376 17.1255 8.13735 17.1255 7.86324 16.8515ZM9.52071 18.5092C9.24587 18.2342 9.2455 17.7896 9.52071 17.5146L11.1778 15.8575C11.4527 15.5826 11.8972 15.5822 12.1723 15.8575C12.4489 16.1341 12.4449 16.5793 12.1723 16.8517L10.515 18.5092C10.2407 18.7831 9.79482 18.7831 9.52071 18.5092ZM13.1665 18.5092C12.8926 18.7833 12.4465 18.7833 12.1724 18.5092L12.0065 18.3433L12.8353 17.5146C12.8913 17.4585 12.9419 17.3987 12.9887 17.3366L13.1663 17.5144C13.1665 17.5144 13.1665 17.5144 13.1667 17.5146L13.1669 17.5147C13.4417 17.7896 13.4417 18.234 13.1665 18.5092ZM18.1388 13.537C17.8645 13.8109 17.4182 13.8109 17.1441 13.537L14.9897 11.3827C14.8066 11.1996 14.5098 11.1996 14.3267 11.3827C14.1438 11.5656 14.1438 11.8625 14.3267 12.0456L16.4813 14.2002C16.7561 14.4748 16.7563 14.9194 16.4811 15.1946C16.2059 15.4698 15.7611 15.4687 15.487 15.1946L13.3326 13.0396C13.1497 12.8567 12.8529 12.8567 12.6698 13.0396C12.4867 13.2227 12.4866 13.5196 12.6696 13.7027L14.824 15.8575C15.0981 16.1316 15.0981 16.5776 14.824 16.8515C14.6914 16.9843 14.5147 17.0575 14.3267 17.0575C13.8812 17.0575 13.7376 16.7067 13.3152 16.3374C13.311 15.9056 13.1411 15.5004 12.8355 15.1948C12.5246 14.8835 12.1082 14.7097 11.6583 14.7141C11.6629 14.2635 11.4884 13.8471 11.1778 13.537C10.8537 13.2129 10.4265 13.0534 10.0008 13.0578C10.0101 12.1333 9.26143 11.3902 8.34371 11.3997C8.34828 10.9444 8.17031 10.5296 7.86324 10.2226C7.22365 9.58279 6.18288 9.58279 5.54329 10.2226L4.71419 11.0517L3.59725 9.93802L9.11421 4.42013C9.79738 4.49814 10.2573 4.69461 10.679 5.08664L9.35463 6.41086C8.62422 7.14181 8.62422 8.33127 9.35481 9.06259C10.086 9.79318 11.2756 9.79337 12.0065 9.06241L13.3326 7.73654C14.1895 8.59366 17.514 11.9183 18.1386 12.5431C18.4127 12.817 18.4127 13.263 18.1388 13.537ZM17.9732 11.0517L13.9954 7.0737L14.3269 6.74228C14.51 6.55917 14.51 6.26236 14.3269 6.07925C14.1438 5.89633 13.8471 5.89633 13.6638 6.07925L11.3435 8.39975C10.9782 8.76505 10.3831 8.76505 10.0177 8.39975C9.65236 8.03409 9.65236 7.43918 10.0175 7.0737C10.4983 6.59305 11.4461 5.64548 11.9263 5.16537C12.4823 4.60947 13.1414 4.36136 14.0632 4.36136C14.7262 4.36136 15.2986 4.16214 15.8349 3.74026L20.5025 8.52902C17.4514 11.5722 18.0536 10.9715 17.9732 11.0517ZM21.1655 7.866L16.5267 3.10672L18.219 1.51242L22.8684 6.16275L21.1655 7.866Z" fill="#565656"/>
</symbol><symbol id="icon-plus-white" viewBox="0 0 12 12">
<path d="M6 0V12M0 6H12" stroke="#FFFFFF" stroke-width="2"/>
</symbol><symbol id="icon-plus" viewBox="0 0 12 12">
<path d="M6 0V12M0 6H12" stroke="#F1692B" stroke-width="2"/>
</symbol><symbol id="icon-rating" viewBox="0 0 14 17">
<rect x="5.82947" y="0.35347" width="3.28125" height="15.1658" fill="#F1692B"/>
<rect x="9.93103" y="5.40874" width="3.28125" height="10.1105" fill="#F1692B"/>
<rect x="1.72791" y="9.45296" width="3.28125" height="6.06632" fill="#F1692B"/>
</symbol><symbol id="icon-rocket-white" viewBox="0 0 16 16">
<path d="M15.8873 0.112663C15.8118 0.0371593 15.7087 -0.00376563 15.6016 0.000273013C15.5146 0.00338854 13.4439 0.0866231 10.9825 0.956624C9.01007 1.65304 7.36603 2.65012 6.09601 3.92018C5.81142 4.20477 5.53448 4.50656 5.26951 4.82007C4.01376 4.08088 3.00748 4.31266 2.37134 4.6531C0.906618 5.43698 0 7.56539 0 9.08776C0.00011539 9.24331 0.0938505 9.38358 0.237549 9.44309C0.285129 9.46282 0.335131 9.4724 0.384671 9.4724C0.484791 9.4724 0.583142 9.43328 0.656722 9.35974C1.42918 8.58728 2.38195 8.63559 2.6932 8.67651L2.8279 8.81121C2.56281 9.44201 2.34926 10.0693 2.19264 10.6793C2.1361 10.9001 2.15518 11.1337 2.23922 11.3474C1.86889 11.5181 1.51161 11.7687 1.20052 12.0798C0.210433 13.0699 0.00938521 15.4829 0.00130791 15.5851C-0.00753864 15.6973 0.0331554 15.8078 0.112736 15.8873C0.185162 15.9597 0.283128 16 0.384671 16C0.394749 16 0.404865 15.9996 0.414981 15.9988C0.517216 15.9908 2.93025 15.7897 3.92033 14.7996C4.23131 14.4887 4.48186 14.1314 4.65252 13.7612C4.87876 13.8501 5.11162 13.8611 5.32101 13.8074C5.93081 13.6509 6.55799 13.4374 7.18887 13.1723L7.32357 13.307C7.36445 13.6182 7.41276 14.571 6.64034 15.3434C6.53037 15.4534 6.49745 15.6188 6.55699 15.7625C6.61649 15.9063 6.75673 16 6.91232 16C8.43469 16 10.5631 15.0933 11.3469 13.6286C11.6874 12.9926 11.9192 11.9863 11.18 10.7305C11.4933 10.4656 11.7952 10.1887 12.0799 9.90399C13.3499 8.63393 14.347 6.9899 15.0434 5.01765C15.9134 2.55608 15.9966 0.485372 15.9997 0.398445C16.0036 0.291709 15.9628 0.188205 15.8873 0.112663ZM0.859962 8.26046C1.0989 7.10413 1.79289 5.83527 2.73447 5.33132C3.36369 4.99462 4.05145 5.02762 4.78272 5.4279C4.15973 6.24725 3.61813 7.12998 3.16668 8.06214C3.16095 8.0586 3.09172 7.97156 2.9631 7.94256C2.91021 7.93059 1.89251 7.7117 0.859962 8.26046ZM3.37639 14.2557C2.84751 14.7845 1.60688 15.0635 0.82273 15.1773C0.936658 14.3932 1.21563 13.1526 1.74446 12.6237C2.04063 12.3276 2.38403 12.103 2.7292 11.9765L4.02357 13.2709C3.8971 13.6161 3.67259 13.9595 3.37639 14.2557ZM5.12993 13.0623C5.01861 13.0908 4.88968 13.0489 4.79383 12.9532C4.29623 12.4556 4.10157 12.2609 4.04049 12.1999C3.92849 12.0879 3.65382 11.8132 3.04714 11.2065C2.95121 11.1104 2.90936 10.9815 2.93779 10.8704C3.06099 10.3906 3.22211 9.89834 3.41804 9.40135L6.59876 12.5821C6.1017 12.778 5.60953 12.9391 5.12993 13.0623ZM10.6688 13.2656C10.1648 14.2072 8.89602 14.9012 7.73974 15.1401C8.10841 14.4464 8.18968 13.5632 8.05498 13.0277C8.02371 12.9033 7.94255 12.8407 7.93802 12.8334C8.8701 12.382 9.75279 11.8403 10.5722 11.2174C10.9725 11.9487 11.0055 12.6365 10.6688 13.2656ZM11.536 9.36004C11.1894 9.7066 10.8162 10.0414 10.4267 10.3552C9.49043 11.109 8.45992 11.7476 7.36049 12.2559L3.74417 8.6397C4.2525 7.54019 4.89107 6.50968 5.64487 5.57353C5.95889 5.18378 6.29367 4.81053 6.64011 4.46413C7.77959 3.32462 9.25019 2.41773 11.0123 1.76493L14.2352 4.98785C13.5825 6.74989 12.6756 8.22049 11.536 9.36004ZM14.5119 4.17662L11.8235 1.48819C13.2882 1.03324 14.5625 0.862889 15.1985 0.801656C15.1372 1.4378 14.9668 2.71205 14.5119 4.17662Z" fill="#FFFFFF"/>
</symbol><symbol id="icon-rocket" viewBox="0 0 16 16">
<path d="M15.8873 0.112663C15.8118 0.0371593 15.7087 -0.00376563 15.6016 0.000273013C15.5146 0.00338854 13.4439 0.0866231 10.9825 0.956624C9.01007 1.65304 7.36603 2.65012 6.09601 3.92018C5.81142 4.20477 5.53448 4.50656 5.26951 4.82007C4.01376 4.08088 3.00748 4.31266 2.37134 4.6531C0.906618 5.43698 0 7.56539 0 9.08776C0.00011539 9.24331 0.0938505 9.38358 0.237549 9.44309C0.285129 9.46282 0.335131 9.4724 0.384671 9.4724C0.484791 9.4724 0.583142 9.43328 0.656722 9.35974C1.42918 8.58728 2.38195 8.63559 2.6932 8.67651L2.8279 8.81121C2.56281 9.44201 2.34926 10.0693 2.19264 10.6793C2.1361 10.9001 2.15518 11.1337 2.23922 11.3474C1.86889 11.5181 1.51161 11.7687 1.20052 12.0798C0.210433 13.0699 0.00938521 15.4829 0.00130791 15.5851C-0.00753864 15.6973 0.0331554 15.8078 0.112736 15.8873C0.185162 15.9597 0.283128 16 0.384671 16C0.394749 16 0.404865 15.9996 0.414981 15.9988C0.517216 15.9908 2.93025 15.7897 3.92033 14.7996C4.23131 14.4887 4.48186 14.1314 4.65252 13.7612C4.87876 13.8501 5.11162 13.8611 5.32101 13.8074C5.93081 13.6509 6.55799 13.4374 7.18887 13.1723L7.32357 13.307C7.36445 13.6182 7.41276 14.571 6.64034 15.3434C6.53037 15.4534 6.49745 15.6188 6.55699 15.7625C6.61649 15.9063 6.75673 16 6.91232 16C8.43469 16 10.5631 15.0933 11.3469 13.6286C11.6874 12.9926 11.9192 11.9863 11.18 10.7305C11.4933 10.4656 11.7952 10.1887 12.0799 9.90399C13.3499 8.63393 14.347 6.9899 15.0434 5.01765C15.9134 2.55608 15.9966 0.485372 15.9997 0.398445C16.0036 0.291709 15.9628 0.188205 15.8873 0.112663ZM0.859962 8.26046C1.0989 7.10413 1.79289 5.83527 2.73447 5.33132C3.36369 4.99462 4.05145 5.02762 4.78272 5.4279C4.15973 6.24725 3.61813 7.12998 3.16668 8.06214C3.16095 8.0586 3.09172 7.97156 2.9631 7.94256C2.91021 7.93059 1.89251 7.7117 0.859962 8.26046ZM3.37639 14.2557C2.84751 14.7845 1.60688 15.0635 0.82273 15.1773C0.936658 14.3932 1.21563 13.1526 1.74446 12.6237C2.04063 12.3276 2.38403 12.103 2.7292 11.9765L4.02357 13.2709C3.8971 13.6161 3.67259 13.9595 3.37639 14.2557ZM5.12993 13.0623C5.01861 13.0908 4.88968 13.0489 4.79383 12.9532C4.29623 12.4556 4.10157 12.2609 4.04049 12.1999C3.92849 12.0879 3.65382 11.8132 3.04714 11.2065C2.95121 11.1104 2.90936 10.9815 2.93779 10.8704C3.06099 10.3906 3.22211 9.89834 3.41804 9.40135L6.59876 12.5821C6.1017 12.778 5.60953 12.9391 5.12993 13.0623ZM10.6688 13.2656C10.1648 14.2072 8.89602 14.9012 7.73974 15.1401C8.10841 14.4464 8.18968 13.5632 8.05498 13.0277C8.02371 12.9033 7.94255 12.8407 7.93802 12.8334C8.8701 12.382 9.75279 11.8403 10.5722 11.2174C10.9725 11.9487 11.0055 12.6365 10.6688 13.2656ZM11.536 9.36004C11.1894 9.7066 10.8162 10.0414 10.4267 10.3552C9.49043 11.109 8.45992 11.7476 7.36049 12.2559L3.74417 8.6397C4.2525 7.54019 4.89107 6.50968 5.64487 5.57353C5.95889 5.18378 6.29367 4.81053 6.64011 4.46413C7.77959 3.32462 9.25019 2.41773 11.0123 1.76493L14.2352 4.98785C13.5825 6.74989 12.6756 8.22049 11.536 9.36004ZM14.5119 4.17662L11.8235 1.48819C13.2882 1.03324 14.5625 0.862889 15.1985 0.801656C15.1372 1.4378 14.9668 2.71205 14.5119 4.17662Z" fill="#F1692B"/>
</symbol><symbol id="icon-twitter" viewBox="0 0 24 20">
<path d="M24 2.55662C23.1169 2.94821 22.168 3.21292 21.172 3.33193C22.1885 2.72256 22.9693 1.75764 23.337 0.607801C22.3855 1.17213 21.3318 1.58186 20.2102 1.80264C19.3121 0.845691 18.0323 0.247803 16.6161 0.247803C13.8968 0.247803 11.6923 2.45228 11.6923 5.17149C11.6923 5.55741 11.7358 5.9332 11.8198 6.29362C7.7276 6.08822 4.09944 4.12801 1.67095 1.14897C1.24711 1.87619 1.00425 2.722 1.00425 3.62438C1.00425 5.33269 1.87349 6.83981 3.19471 7.72279C2.38757 7.6972 1.62834 7.47571 0.964544 7.1069C0.964075 7.12743 0.964075 7.14806 0.964075 7.16882C0.964075 9.55447 2.66137 11.5445 4.9138 11.9969C4.50069 12.1094 4.06564 12.1698 3.61658 12.1698C3.29929 12.1698 2.99085 12.1388 2.69015 12.0813C3.31677 14.0373 5.13514 15.4611 7.28979 15.5007C5.60464 16.8215 3.48154 17.6085 1.17459 17.6085C0.777138 17.6085 0.385218 17.5853 0 17.5396C2.17902 18.9368 4.76722 19.7519 7.54784 19.7519C16.6046 19.7519 21.5572 12.2491 21.5572 5.74237C21.5572 5.52891 21.5524 5.31656 21.5429 5.10535C22.5051 4.41118 23.3399 3.54399 24 2.55662Z" fill="#999999"/>
</symbol><symbol id="icon-users" viewBox="0 0 73 63">
<path d="M71.9081 53.3757C71.3255 53.3757 70.8534 53.8098 70.8534 54.3453V60.8243C70.8534 60.9143 70.7738 60.9876 70.6758 60.9876H66.6683V46.8207C66.6683 46.2852 66.1962 45.851 65.6136 45.851C65.031 45.851 64.5589 46.2852 64.5589 46.8207V60.9877H56.8147L58.9107 58.8678C59.2344 58.5403 59.387 58.0752 59.3191 57.6236C59.3175 57.6139 59.316 57.6044 59.3142 57.5947L56.958 44.7958L57.3915 44.1958L57.5045 44.2695C57.891 44.522 58.3841 44.614 58.8611 44.5045C59.3295 44.3968 59.722 44.1071 59.9377 43.7099V43.7098L62.3352 39.2919L67.8118 41.2419C68.028 41.3283 70.8528 42.5192 70.8528 45.6177V49.82C70.853 50.3556 71.325 50.7898 71.9076 50.7898C72.4902 50.7898 72.9623 50.3556 72.9623 49.8201V45.6178C72.9623 41.1432 68.7879 39.514 68.6103 39.4468C68.6035 39.4442 68.5969 39.4417 68.5902 39.4394L59.2644 36.1188V34.3527C60.7201 33.276 61.7425 31.7242 62.0494 29.9552C62.7755 29.8714 63.4491 29.6042 64.0081 29.1621C64.8096 28.5284 65.2696 27.6062 65.2696 26.6322C65.2696 25.8548 64.9761 25.1109 64.4506 24.5201V21.9036C64.4506 16.783 59.9194 12.6173 54.3501 12.6173C51.8497 12.6173 49.5603 13.4587 47.7945 14.8475C47.7717 14.1045 47.4824 13.3965 46.9783 12.8297V10.2133C46.9783 5.09276 42.4471 0.927002 36.8778 0.927002C31.3082 0.927002 26.7772 5.09289 26.7772 10.2133V12.898C26.2702 13.4549 25.9866 14.1264 25.9616 14.8392C24.8349 13.954 23.4864 13.2875 21.9836 12.9237C21.4194 12.7872 20.8433 13.0965 20.6949 13.6145C20.5465 14.1324 20.8829 14.6628 21.4462 14.7992C24.9496 15.6474 27.3965 18.5689 27.3965 21.9034V23.3537C27.3509 23.345 27.2047 23.3218 27.1991 23.3211C27.1847 23.0474 27.1093 22.8802 26.9471 22.6656C26.6771 22.3089 26.1922 21.8645 24.6327 20.3234C24.0769 19.7746 23.178 19.6739 22.4957 20.084C19.8246 21.6882 16.5794 22.5058 13.5678 22.3433C12.5868 22.2904 11.9741 22.6867 11.7129 23.3361C11.6896 23.3396 11.4287 23.3879 11.4142 23.3911V21.9034C11.4142 18.6882 13.7511 15.7957 17.097 14.8691C17.6547 14.7147 17.9707 14.1738 17.8028 13.6609C17.6348 13.148 17.0455 12.8575 16.4885 13.0121C14.4537 13.5755 12.6246 14.7487 11.3386 16.3151C10.0079 17.9356 9.30459 19.8681 9.30459 21.9036V24.5883C8.77331 25.1719 8.48602 25.8812 8.48602 26.6322C8.48602 28.2923 9.81632 29.74 11.7117 29.956C12.0222 31.6836 13.0417 33.3404 14.6507 34.4669V36.1193L5.33533 39.4397C5.32872 39.442 5.32211 39.4445 5.3155 39.4469C5.13747 39.514 0.962891 41.143 0.962891 45.6177V60.8243C0.962891 61.9839 1.98889 62.927 3.25015 62.927H35.7303C36.1842 62.927 36.6065 62.8033 36.9629 62.5928C37.319 62.8033 37.7414 62.927 38.1955 62.927H70.6758C71.9369 62.927 72.9629 61.9839 72.9629 60.8243V54.3453C72.9628 53.8098 72.4907 53.3757 71.9081 53.3757ZM11.6084 27.9524C10.9901 27.7461 10.5951 27.2202 10.5951 26.632C10.5951 26.0614 11.0451 25.5926 11.6084 25.3701V27.9524ZM60.3597 38.5885L58.2894 42.4032C58.2892 42.4029 55.9898 40.9015 55.9572 40.8802C56.9491 39.7544 56.4831 40.2833 58.5458 37.9427L60.3597 38.5885ZM54.4325 39.5294L51.7048 36.4339V35.5037C52.5915 35.7855 53.5466 35.9156 54.4456 35.9158C54.4457 35.9158 54.446 35.9158 54.4462 35.9158H54.4463C55.3758 35.9157 56.3169 35.7534 57.155 35.4635V36.4398L54.4325 39.5294ZM55.6709 43.0723L55.2829 43.6092H53.5826L53.1946 43.0723L54.4328 42.2638L55.6709 43.0723ZM36.9601 27.839L34.2324 24.7435V23.8133C35.1155 24.094 36.0696 24.2252 36.9732 24.2254C36.9733 24.2254 36.9736 24.2254 36.9737 24.2254H36.9739C37.9017 24.2254 38.8426 24.0637 39.6826 23.7732V24.7494L36.9601 27.839ZM38.1983 31.3821L37.8103 31.9191H36.11L35.722 31.3821L36.9602 30.5737L38.1983 31.3821ZM28.6544 18.1726C28.8268 18.2158 29.004 18.2451 29.1838 18.2656C29.4943 19.9932 30.5139 21.65 32.1229 22.7765V24.4289L29.9712 25.1957C29.8464 24.9549 29.6905 24.728 29.5054 24.52V21.9036C29.5054 20.5877 29.2039 19.3227 28.6544 18.1726ZM42.5647 17.1458C42.5647 19.984 40.0464 22.2857 36.9739 22.2857C33.5073 22.2857 31.1907 19.8157 31.1907 17.1458V12.6037C34.5211 12.7263 37.9809 11.8188 40.8095 10.2001C41.7606 11.1377 42.3264 11.6824 42.5648 11.9353C42.5647 14.3495 42.5647 15.2816 42.5647 17.1458ZM44.5771 18.2649C44.756 18.2442 44.9324 18.2148 45.1038 18.1717C44.5559 19.3146 44.2493 20.5764 44.2493 21.9036V24.5882C44.0872 24.7662 43.9477 24.9559 43.8323 25.1549L41.7921 24.4285V22.6625C43.2477 21.5857 44.2702 20.0338 44.5771 18.2649ZM32.8432 26.2538L35.4323 29.192L33.6667 30.345C33.6657 30.3456 33.665 30.3463 33.664 30.3469L33.1036 30.7129L31.0332 26.8983L32.8432 26.2538ZM39.3875 28.1652L41.0732 26.2523L42.8871 26.8981L40.817 30.7129L40.2553 30.3463C40.2548 30.3459 40.2542 30.3454 40.2536 30.345L38.4847 29.1898L39.3875 28.1652ZM39.9191 32.5055L40.032 32.5792C40.4263 32.8367 40.9212 32.9218 41.3886 32.8142C41.857 32.7065 42.2495 32.4168 42.4652 32.0196V32.0195L44.2453 28.7396C44.8568 29.4326 45.7414 29.8541 46.6523 29.9587C46.9741 31.8126 48.0641 33.3949 49.5955 34.4669V36.1192L40.6287 39.3153L39.4854 33.1056L39.9191 32.5055ZM50.3156 37.9441L52.9048 40.8823C51.7728 41.6217 50.6347 42.3649 50.576 42.4032L48.5056 38.5886L50.3156 37.9441ZM60.037 28.8362C60.0373 31.6051 57.5914 33.9761 54.4463 33.9761C50.8615 33.9761 48.6631 31.3948 48.6631 28.8362V24.2941C51.9698 24.4155 55.4341 23.52 58.2818 21.8905C59.2329 22.8281 59.7988 23.3728 60.0371 23.6257C60.037 26.0397 60.037 26.972 60.037 28.8362ZM63.1602 26.6321C63.1602 27.2214 62.764 27.7462 62.1469 27.9524V25.3146C62.7848 25.5281 63.1602 26.064 63.1602 26.6321ZM46.3589 21.9034C46.3589 17.8524 49.9438 14.5566 54.35 14.5566C58.7563 14.5566 62.341 17.8525 62.341 21.9034V23.3537C62.293 23.3445 62.1611 23.3235 62.1435 23.3211C62.1292 23.0471 62.0534 22.8796 61.8915 22.6656C61.6144 22.2996 61.1348 21.8628 59.5771 20.3234C59.0332 19.7866 58.1363 19.6657 57.4402 20.084C54.8415 21.6447 51.5582 22.5263 48.4339 22.3398C47.5563 22.2869 46.9205 22.682 46.6574 23.3362C46.6339 23.3397 46.3735 23.388 46.3587 23.3913V21.9034H46.3589ZM46.5536 25.3703V27.9511C45.9335 27.7455 45.5403 27.2183 45.5403 26.632C45.5401 26.0614 45.9899 25.5929 46.5536 25.3703ZM45.6875 14.9418C45.6875 15.3501 45.4953 15.7363 45.1602 16.0012C45.0163 16.115 44.8523 16.2024 44.6742 16.262V13.6242C45.3049 13.8346 45.6875 14.3677 45.6875 14.9418ZM36.8774 2.86631C41.2837 2.86631 44.8685 6.16209 44.8685 10.2132V11.6634C44.8208 11.6543 44.6887 11.6333 44.6711 11.6308C44.6555 11.3338 44.5624 11.1513 44.3724 10.9151C44.09 10.5637 43.5694 10.0805 42.1047 8.63303C41.5516 8.08705 40.6533 7.98168 39.9678 8.39359C37.2233 10.042 33.894 10.8442 30.8764 10.6455C30.1381 10.5942 29.443 11.0043 29.1851 11.6457C29.1616 11.6492 28.901 11.6975 28.8864 11.7008V10.2133H28.8863C28.8863 6.16209 32.4712 2.86631 36.8774 2.86631ZM29.0809 13.6799V16.2621C28.4626 16.0558 28.0675 15.53 28.0675 14.9417C28.0675 14.3744 28.514 13.9039 29.0809 13.6799ZM27.2016 25.3146C27.7916 25.512 28.1706 25.9853 28.2082 26.5478C28.2554 27.1733 27.8373 27.7389 27.2016 27.9512V25.3146ZM27.1039 29.9584C28.0986 29.844 29.0117 29.362 29.6105 28.6205L31.4552 32.0195C31.4552 32.0195 31.4552 32.0195 31.4553 32.0196C31.6709 32.4169 32.0634 32.7065 32.5318 32.8142C32.9949 32.9206 33.4903 32.8392 33.8884 32.5792L34.0013 32.5055L34.4349 33.1055L33.292 39.3135L24.3196 36.1187V34.3534H24.3195C25.8133 33.2461 26.804 31.6814 27.1039 29.9584ZM19.4873 39.5294L16.7597 36.4339V35.5037C17.6428 35.7843 18.5971 35.9156 19.5006 35.9157C19.5007 35.9157 19.501 35.9157 19.5011 35.9157C20.4442 35.9157 21.3835 35.7492 22.2098 35.4635V36.4398L19.4873 39.5294ZM20.7257 43.0723L20.3377 43.6092H18.6374L18.2494 43.0723L19.4876 42.2638L20.7257 43.0723ZM23.6005 37.9427L25.4145 38.5886L23.3443 42.4032L22.7826 42.0365C22.782 42.0362 22.7815 42.0356 22.7809 42.0352L21.012 40.8802L23.6005 37.9427ZM13.718 28.8362V24.2941C17.0661 24.417 20.5281 23.4976 23.3367 21.8905C24.2787 22.8193 24.8533 23.3725 25.0919 23.6257C25.0919 26.0399 25.0919 26.9721 25.0919 28.8362C25.0919 31.6563 22.5909 33.9761 19.5011 33.9761C16.061 33.9761 13.718 31.5343 13.718 28.8362ZM15.3706 37.9441L17.9597 40.8823L16.1941 42.0352C16.1931 42.0359 16.1924 42.0365 16.1914 42.0372L15.631 42.4032L13.5606 38.5886L15.3706 37.9441ZM9.36703 60.9878V46.8207C9.36703 46.2852 8.89495 45.851 8.31235 45.851C7.72974 45.851 7.25766 46.2852 7.25766 46.8207V60.9877H3.25015C3.15199 60.9877 3.0724 60.9144 3.0724 60.8244V45.6177C3.0724 42.5033 5.92665 41.3162 6.11143 41.2427L11.5847 39.2919L13.9825 43.7098C13.9825 43.7098 13.9825 43.7098 13.9826 43.7099C14.1982 44.1072 14.5907 44.3968 15.0592 44.5045C15.5223 44.6109 16.0177 44.5295 16.4158 44.2695L16.5288 44.1958L16.9623 44.7958L14.6061 57.5947C14.6043 57.6043 14.6028 57.6139 14.6012 57.6236C14.5334 58.075 14.686 58.54 15.0099 58.868L17.1056 60.9877H9.36703V60.9878ZM16.7231 57.7172L18.9631 45.5486H20.012L22.2522 57.7172L19.4876 60.5133L16.7231 57.7172ZM35.9079 60.8243C35.9079 60.9144 35.8283 60.9877 35.7303 60.9877H31.7231V46.8207C31.7231 46.2852 31.251 45.851 30.6684 45.851C30.0858 45.851 29.6137 46.2852 29.6137 46.8207V60.9877H21.8695L23.9655 58.8678C24.2893 58.5403 24.4418 58.0752 24.3739 57.6236C24.3724 57.6139 24.3708 57.6044 24.369 57.5947L22.0128 44.7958L22.4464 44.1958L22.5593 44.2695C22.8415 44.4538 23.1756 44.55 23.5147 44.55C24.1333 44.55 24.7094 44.2313 24.9927 43.7099V43.7098L27.3902 39.292L32.8668 41.2421C34.4632 41.8805 35.9078 43.527 35.9078 45.6177V60.8243H35.9079ZM36.9627 42.0941C36.5258 41.4469 35.9442 40.848 35.2431 40.3369L36.4357 33.8585H37.4846L38.6778 40.3403C37.958 40.8658 37.3839 41.4701 36.9627 42.0941ZM44.3121 60.9878V46.8207C44.3121 46.2852 43.84 45.851 43.2574 45.851C42.6748 45.851 42.2027 46.2852 42.2027 46.8207V60.9877H38.1953C38.0973 60.9877 38.0176 60.9144 38.0176 60.8244V45.6177C38.0176 44.4649 38.4108 43.4032 39.2483 42.5113C39.8067 41.9224 40.5474 41.4456 41.0568 41.2427L46.53 39.2918L48.9278 43.7098C48.9278 43.7098 48.9278 43.7098 48.9279 43.7099C49.1435 44.1072 49.536 44.3968 50.0044 44.5045C50.4675 44.6109 50.9629 44.5295 51.361 44.2695L51.4739 44.1958L51.9075 44.7958L49.5513 57.5947C49.5495 57.6043 49.5479 57.6139 49.5464 57.6236C49.4786 58.075 49.6312 58.54 49.955 58.868L52.0508 60.9877H44.3121V60.9878ZM51.6681 57.7174L53.9083 45.5488H54.9572L57.1973 57.7174L54.4327 60.5135L51.6681 57.7174Z" fill="#565656"/>
</symbol><symbol id="icon-vk" viewBox="0 0 24 14">
<path d="M23.8728 12.5198C23.8437 12.4572 23.8166 12.4052 23.7915 12.3636C23.3751 11.6136 22.5793 10.6931 21.4047 9.60181L21.3799 9.57682L21.3675 9.56456L21.3549 9.552H21.3423C20.8093 9.04382 20.4717 8.70213 20.3303 8.5272C20.0716 8.19395 20.0137 7.85664 20.1551 7.51487C20.2549 7.25664 20.6301 6.7113 21.2797 5.87811C21.6214 5.43654 21.892 5.08264 22.0918 4.81602C23.5331 2.89989 24.158 1.67547 23.9663 1.14225L23.8919 1.01765C23.8418 0.942633 23.7127 0.874006 23.5047 0.811419C23.2962 0.748964 23.0297 0.738635 22.7047 0.780258L19.106 0.805117C19.0477 0.784459 18.9645 0.786385 18.856 0.811419C18.7477 0.836454 18.6935 0.849016 18.6935 0.849016L18.6309 0.880309L18.5812 0.917904C18.5395 0.942764 18.4937 0.986488 18.4436 1.04899C18.3939 1.11127 18.3523 1.18436 18.319 1.26765C17.9272 2.27565 17.4817 3.21283 16.9818 4.07915C16.6735 4.59574 16.3904 5.04343 16.1319 5.42249C15.8737 5.80143 15.6571 6.08062 15.4823 6.25958C15.3073 6.43872 15.1493 6.58223 15.0074 6.69064C14.8657 6.7991 14.7575 6.84492 14.6827 6.82816C14.6076 6.8114 14.5369 6.79477 14.47 6.77813C14.3534 6.70312 14.2597 6.6011 14.189 6.47198C14.118 6.34287 14.0702 6.18036 14.0452 5.98459C14.0204 5.78869 14.0057 5.62019 14.0015 5.47852C13.9976 5.33702 13.9994 5.13687 14.0078 4.87865C14.0165 4.62029 14.0204 4.44548 14.0204 4.35384C14.0204 4.03722 14.0265 3.69361 14.0389 3.3229C14.0515 2.9522 14.0617 2.65848 14.0703 2.44209C14.0788 2.22549 14.0827 1.99632 14.0827 1.75473C14.0827 1.51314 14.068 1.32367 14.0389 1.18615C14.0102 1.04881 13.9661 0.915497 13.9081 0.786253C13.8496 0.657141 13.7641 0.557264 13.6519 0.486362C13.5395 0.415547 13.3997 0.35935 13.2333 0.317596C12.7917 0.217676 12.2295 0.163624 11.5462 0.15522C9.99683 0.138589 9.00126 0.23864 8.55974 0.455243C8.3848 0.54676 8.22649 0.671802 8.08495 0.829976C7.93496 1.01332 7.91404 1.11337 8.02232 1.12982C8.52223 1.20471 8.87613 1.38385 9.08442 1.66706L9.15948 1.81714C9.21786 1.92542 9.27616 2.11712 9.3345 2.39198C9.39275 2.66684 9.43035 2.97088 9.44689 3.30395C9.48847 3.91218 9.48847 4.43284 9.44689 4.86595C9.40518 5.29925 9.36579 5.63656 9.3282 5.87815C9.2906 6.11975 9.23441 6.31552 9.15948 6.46542C9.08442 6.61537 9.03448 6.70701 9.00944 6.74028C8.98445 6.77354 8.96362 6.7945 8.94708 6.80273C8.8388 6.84422 8.72618 6.86536 8.60963 6.86536C8.4929 6.86536 8.35136 6.80698 8.18478 6.69029C8.01825 6.57361 7.84542 6.41334 7.66628 6.20921C7.48714 6.00503 7.28511 5.71972 7.0601 5.35321C6.83527 4.98671 6.60199 4.55354 6.3604 4.05373L6.16052 3.69125C6.03556 3.45806 5.86487 3.11851 5.64827 2.67292C5.43153 2.22715 5.23996 1.79596 5.07343 1.37943C5.00686 1.20449 4.90685 1.07131 4.77358 0.97966L4.71104 0.942064C4.66946 0.908801 4.60272 0.873481 4.51116 0.835841C4.41946 0.798245 4.32379 0.771285 4.22374 0.754697L0.799886 0.779557C0.450013 0.779557 0.21262 0.858819 0.0876216 1.01712L0.0375959 1.09201C0.0126049 1.13372 0 1.20033 0 1.29203C0 1.38367 0.024991 1.49615 0.0750167 1.62934C0.574836 2.80404 1.11838 3.93695 1.70564 5.02824C2.29291 6.11953 2.80323 6.99859 3.23631 7.66464C3.66947 8.33116 4.11099 8.96023 4.56087 9.55152C5.01076 10.143 5.30855 10.5221 5.45425 10.6886C5.60012 10.8555 5.7147 10.9802 5.79799 11.0635L6.11045 11.3633C6.31037 11.5633 6.60396 11.8028 6.99135 12.0818C7.37882 12.361 7.80778 12.6359 8.27845 12.9068C8.7492 13.1774 9.29686 13.3981 9.92172 13.5689C10.5465 13.7398 11.1546 13.8083 11.7461 13.7753H13.1832C13.4746 13.7501 13.6954 13.6584 13.8455 13.5003L13.8952 13.4376C13.9286 13.3879 13.9599 13.3107 13.9888 13.2067C14.0181 13.1026 14.0326 12.9879 14.0326 12.8631C14.0241 12.505 14.0513 12.1822 14.1136 11.8948C14.1759 11.6075 14.2469 11.3909 14.3263 11.245C14.4057 11.0993 14.4952 10.9763 14.5949 10.8766C14.6947 10.7767 14.7659 10.7162 14.8077 10.6953C14.8491 10.6744 14.8823 10.6601 14.9073 10.6516C15.1072 10.585 15.3425 10.6495 15.6135 10.8454C15.8843 11.0412 16.1383 11.2829 16.3758 11.5702C16.6133 11.8578 16.8985 12.1804 17.2317 12.5385C17.5651 12.8968 17.8566 13.1631 18.1064 13.3383L18.3562 13.4883C18.523 13.5883 18.7396 13.68 19.0063 13.7633C19.2724 13.8465 19.5056 13.8673 19.7058 13.8257L22.9046 13.7758C23.221 13.7758 23.4672 13.7234 23.6419 13.6195C23.8168 13.5154 23.9208 13.4007 23.9543 13.2759C23.9877 13.151 23.9895 13.0092 23.9607 12.8508C23.931 12.6928 23.9018 12.5823 23.8728 12.5198Z" fill="#999999"/>
</symbol></svg>