<svg width="20" height="24" viewBox="0 0 20 24" fill="none" xmlns="http://www.w3.org/2000/svg">
<rect width="20" height="24" fill="#E5E5E5"/>
<g clip-path="url(#clip0)">
<rect width="1920" height="4232" transform="translate(-880 -3550)" fill="white"/>
<rect x="-880" y="-62" width="1920" height="407" fill="black"/>
<path d="M16.2518 12.7632C16.2247 9.73112 18.7258 8.25602 18.8402 8.18735C17.4237 6.11487 15.2281 5.83171 14.4566 5.80913C12.6126 5.61439 10.824 6.91639 9.88463 6.91639C8.92655 6.91639 7.48006 5.82794 5.92107 5.85993C3.91491 5.89098 2.03812 7.05656 1.00879 8.86657C-1.11548 12.5571 0.468818 17.9806 2.50404 20.9637C3.52211 22.4256 4.71175 24.0559 6.26886 23.9985C7.79223 23.9364 8.36127 23.0248 10.1996 23.0248C12.0211 23.0248 12.5554 23.9985 14.1435 23.9618C15.7784 23.9364 16.8078 22.4943 17.7902 21.0201C18.9667 19.3465 19.4392 17.6964 19.4579 17.6118C19.4204 17.5986 16.2837 16.3963 16.2518 12.7632V12.7632ZM13.252 3.84673C14.0713 2.81849 14.6319 1.41959 14.4763 0C13.2904 0.052682 11.8074 0.823156 10.9533 1.82882C10.1977 2.715 9.52277 4.16752 9.69714 5.53349C11.0293 5.63321 12.397 4.85897 13.252 3.84673V3.84673Z" fill="#999999"/>
</g>
<defs>
<clipPath id="clip0">
<rect width="1920" height="4232" fill="white" transform="translate(-880 -3550)"/>
</clipPath>
</defs>
</svg>
