<svg width="17" height="16" viewBox="0 0 17 16" fill="none" xmlns="http://www.w3.org/2000/svg">
<path d="M16.4862 8.02806C16.6274 7.14171 16.2614 6.23962 15.5555 5.73088C15.1529 5.44242 14.6823 5.29033 14.1908 5.29033H10.7241V2.80434C10.7241 1.70295 10.3999 0.905761 9.76204 0.438982C8.7529 -0.305764 7.37251 0.119056 7.31499 0.13479C7.1163 0.197726 6.98559 0.381291 6.98559 0.585834V3.45468C6.98559 5.6627 4.41828 6.41794 4.3137 6.44941C4.30325 6.45465 4.29279 6.4599 4.28233 6.4599C4.12547 6.21864 3.85357 6.05605 3.53985 6.05605H0.883655C0.397383 6.05605 0 6.45465 0 6.94241V14.6888C0 15.1766 0.397383 15.5752 0.883655 15.5752H3.53985C3.7856 15.5752 4.00521 15.4755 4.1673 15.3129C4.59083 15.7378 5.17644 16 5.82481 16H12.8208C14.4052 16 15.4143 15.1661 15.5973 13.7133L16.4862 8.02806ZM15.5502 7.88121L14.6561 13.5769C14.6561 13.5822 14.6561 13.5874 14.6561 13.5927C14.5359 14.563 13.9189 15.056 12.8208 15.056H5.82481C5.05095 15.056 4.42351 14.4266 4.42351 13.6504V7.38296C4.47057 7.38296 4.51762 7.38296 4.56468 7.36723C4.70063 7.33051 7.93199 6.39171 7.93199 3.45468V0.973942C8.27708 0.926739 8.81041 0.91625 9.2078 1.20471C9.58949 1.48792 9.77773 2.02288 9.77773 2.80434V5.76759C9.77773 6.02983 9.99211 6.24486 10.2535 6.24486H14.196C14.4888 6.24486 14.7712 6.33402 15.0065 6.5071C15.4195 6.80605 15.6339 7.34625 15.5502 7.88121Z" fill="#FFFFFF"/>
</svg>
