<svg width="72" height="73" viewBox="0 0 72 73" fill="none" xmlns="http://www.w3.org/2000/svg">
<path d="M72 31.1204H69.3905L65.5012 33.1668C65.0634 32.9252 64.6081 32.7205 64.1171 32.5975L59.2247 31.3733V30.817C61.389 29.3064 62.7097 26.8109 62.7097 24.1526V22.1226C62.7097 17.6113 59.1748 13.836 54.8301 13.7044C54.6096 13.6987 54.3924 13.7067 54.1741 13.7175L55.4425 10.7479L49.293 4.60008L45.668 6.95952C44.2906 6.18381 42.8339 5.57992 41.3211 5.15634L40.4257 0.926819H31.5754L30.6801 5.15748C29.1672 5.58105 27.7094 6.18495 26.3332 6.96065L22.7081 4.60121L16.5637 10.7456L17.8106 13.7175C17.763 13.7152 17.7176 13.7067 17.67 13.7055C15.4461 13.6409 13.3514 14.4523 11.7603 15.9969C10.167 17.5404 9.29032 19.6118 9.29032 21.83V24.1526C9.29032 26.8109 10.6098 29.3053 12.7742 30.8159V31.3733L9.58291 32.1711L3.79858 28.7978H0V52.8611L11.4246 56.6688H13.6497L13.9275 55.6957L17.4296 57.7977C17.4868 59.7018 19.0139 61.234 20.9163 61.3009C20.9832 63.1953 22.5057 64.7178 24.4001 64.7847C24.467 66.6792 25.9895 68.2017 27.884 68.2686C27.9532 70.2073 29.5409 71.7655 31.4955 71.7655C32.2213 71.7655 32.9329 71.5393 33.5311 71.1361L34.5597 72.0445C35.2044 72.6121 36.0346 72.9268 36.8965 72.9268H37.1114C39.0438 72.9268 40.6162 71.3646 40.6406 69.4384C42.5521 69.414 44.1001 67.866 44.1245 65.9545C46.0371 65.9302 47.5863 64.3799 47.6084 62.4673C49.5386 62.4219 51.0968 60.845 51.0968 58.904C51.0968 58.7872 51.0911 58.6721 51.0792 58.5559L72 48.0963V31.1204ZM60.3871 22.1226V24.1526C60.3871 26.2138 59.2734 28.1395 57.4805 29.1777L56.8998 29.5134L56.9044 33.1883L62.7063 34.6377L49.9355 41.3593V38.231C49.9355 36.6699 49.3049 35.2405 48.2724 34.1841L52.2581 33.1883V29.5105L51.6786 29.1754C49.8867 28.1395 48.7742 26.2138 48.7742 24.1526V21.83C48.7742 20.2463 49.4002 18.7652 50.5382 17.6623C51.6751 16.56 53.1835 15.9658 54.7604 16.027C57.8626 16.12 60.3871 18.8548 60.3871 22.1226ZM37.751 40.4464L32.494 38.7663C30.0983 37.9985 27.5052 37.884 25.0528 38.4272L24.3871 38.5746V38.231C24.3871 36.6297 25.473 35.2393 27.0255 34.8503L33.6774 33.1883V29.5105L33.0979 29.1754C31.3061 28.1395 30.1935 26.2138 30.1935 24.1526V21.83C30.1935 20.2463 30.8196 18.7652 31.9576 17.6623C33.0945 16.56 34.6125 15.9658 36.1797 16.027C39.282 16.12 41.8064 18.8548 41.8064 22.1226V24.1526C41.8064 26.2138 40.6928 28.1395 38.8998 29.1777L38.3192 29.5134L38.3237 33.1883L44.9745 34.8503C46.527 35.2393 47.6129 36.6297 47.6129 38.231V42.5824L47.326 42.7333H46.6143L39.4748 40.6931C38.9123 40.5337 38.3328 40.4685 37.751 40.4464ZM24.6474 18.3076C26.8282 14.0821 31.2176 11.3784 36 11.3784C40.737 11.3784 45.1077 14.0458 47.305 18.2141C46.7521 19.3226 46.4516 20.5502 46.4516 21.83V24.1526C46.4516 26.8109 47.7711 29.3053 49.9355 30.8159V31.3733L45.2903 32.5363L40.644 31.3733V30.817C42.8084 29.3064 44.129 26.8109 44.129 24.1526V22.1226C44.129 17.6113 40.5941 13.836 36.2495 13.7044C34.0267 13.6392 31.9309 14.4512 30.3398 15.9958C28.7476 17.5404 27.871 19.6118 27.871 21.83V24.1526C27.871 26.8109 29.1905 29.3053 31.3548 30.8159V31.3733L26.7097 32.5363L22.0634 31.3733V30.817C24.2278 29.3064 25.5484 26.8109 25.5484 24.1526V22.1226C25.5484 20.7561 25.2195 19.4587 24.6474 18.3076ZM19.3065 11.2843L23.0166 7.57418L26.2821 9.69944L26.907 9.31612C28.4726 8.3567 30.1646 7.65414 31.9355 7.23056L32.6499 7.05932L33.458 3.2494H38.5432L39.3489 7.05818L40.0634 7.22886C41.8342 7.653 43.5263 8.35556 45.0919 9.31499L45.7167 9.6983L48.9823 7.57305L52.6879 11.2798L51.3707 14.3639C50.4742 14.7495 49.6429 15.2921 48.9194 15.9935C48.8717 16.04 48.8309 16.0899 48.7844 16.1376C46.0485 11.7884 41.2116 9.05585 36 9.05585C30.7509 9.05585 25.9005 11.8139 23.1714 16.2073C22.441 15.4429 21.5723 14.8237 20.6095 14.3911L19.3065 11.2843ZM15.0968 33.1883V29.5105L14.5173 29.1754C12.7254 28.1395 11.6129 26.2138 11.6129 24.1526V21.83C11.6129 20.2463 12.2389 18.7652 13.377 17.6623C14.5139 16.56 16.0256 15.9658 17.5991 16.027C20.7014 16.12 23.2258 18.8548 23.2258 22.1226V24.1526C23.2258 26.2138 22.1121 28.1395 20.3192 29.1777L19.7385 29.5134L19.7431 33.1883L23.7276 34.1841C22.6951 35.2405 22.0645 36.6699 22.0645 38.231V39.0912L18.4423 39.8964L18.5364 39.5675L18.5806 37.4213L12.4561 33.8484L15.0968 33.1883ZM2.32258 31.1204H3.16917L11.521 35.9918L7.30683 52.8481L2.32258 51.1861V31.1204ZM11.8012 54.3462L9.51544 53.5846L13.6094 37.2103L16.2581 38.7549V39.0867L11.8987 54.3462H11.8012ZM19.7419 57.6894C19.7419 57.3469 19.8803 57.0112 20.123 56.7686L22.1643 54.7272C22.407 54.4845 22.7427 54.3462 23.0852 54.3462C23.803 54.3462 24.3871 54.9302 24.3871 55.6481C24.3871 55.9906 24.2487 56.3263 24.006 56.569L21.9647 58.6103C21.722 58.853 21.3863 58.9913 21.0438 58.9913C20.326 58.9913 19.7419 58.4073 19.7419 57.6894ZM23.2258 61.1733C23.2258 60.8308 23.3642 60.4951 23.6069 60.2524L25.6482 58.2111C25.8909 57.9684 26.2266 57.83 26.5691 57.83C27.2869 57.83 27.871 58.4141 27.871 59.132C27.871 59.4744 27.7326 59.8101 27.4899 60.0528L25.4486 62.0942C25.2059 62.3368 24.8702 62.4752 24.5277 62.4752C23.8099 62.4752 23.2258 61.8912 23.2258 61.1733ZM26.7097 64.6572C26.7097 64.3147 26.848 63.979 27.0907 63.7363L29.1321 61.695C29.3747 61.4523 29.7104 61.3139 30.0529 61.3139C30.7708 61.3139 31.3548 61.898 31.3548 62.6158C31.3548 62.9583 31.2165 63.294 30.9738 63.5367L28.9325 65.578C28.6898 65.8207 28.3541 65.9591 28.0116 65.9591C27.2937 65.9591 26.7097 65.375 26.7097 64.6572ZM31.4955 69.4429C30.7776 69.4429 30.1935 68.8589 30.1935 68.141C30.1935 67.7985 30.3319 67.4629 30.5746 67.2202L32.6159 65.1788C32.8586 64.9361 33.1943 64.7978 33.5368 64.7978C34.2547 64.7978 34.8387 65.3818 34.8387 66.0997C34.8387 66.4422 34.7004 66.7779 34.4577 67.0206L32.4163 69.0619C32.1736 69.3046 31.838 69.4429 31.4955 69.4429ZM37.1114 70.6042H36.8965C36.6005 70.6042 36.317 70.4965 36.0964 70.3009L35.2277 69.5348L36.0998 68.6627C36.4111 68.3514 36.6527 67.9811 36.8313 67.5836L37.8871 68.4625C38.1632 68.6928 38.3226 69.0318 38.3226 69.393C38.3226 70.061 37.7794 70.6042 37.1114 70.6042ZM47.5256 60.1526H47.3248C47.0334 60.1526 46.7487 60.0494 46.5259 59.8623L40.2284 54.6144L38.7405 56.3994L44.856 61.4948C45.131 61.725 45.2903 62.0641 45.2903 62.4253C45.2903 63.0933 44.7471 63.6365 44.0791 63.6365H43.8257C43.5438 63.6365 43.2683 63.5367 43.0511 63.3552L36.7434 58.0994L35.2555 59.8844L41.371 64.9804C41.6471 65.2089 41.8064 65.548 41.8064 65.9092C41.8064 66.5771 41.2632 67.1204 40.5953 67.1204C40.1496 67.1204 39.7152 66.9622 39.3733 66.6781L36.7814 64.5177C36.2104 63.3507 35.0372 62.537 33.6632 62.4882C33.5963 60.5938 32.0738 59.0713 30.1794 59.0044C30.1125 57.1099 28.59 55.5874 26.6955 55.5205C26.6275 53.5818 25.0398 52.0236 23.0852 52.0236C22.1309 52.0236 21.197 52.4103 20.5222 53.0851L18.4808 55.1264C18.3589 55.2483 18.258 55.3867 18.1554 55.5239L14.5881 53.3833L17.7153 42.4384L25.5552 40.6953C27.6118 40.2355 29.7802 40.3353 31.7858 40.9772L33.4965 41.5243L27.6969 44.4242C26.3717 45.0882 25.5484 46.4213 25.5484 47.9035V48.1332C25.5484 50.2783 27.2937 52.0236 29.4388 52.0236C30.1436 52.0236 30.8371 51.8319 31.4399 51.4685L35.7641 48.8754C36.6328 48.3549 37.7986 48.4688 38.5488 49.1436L48.3608 57.9741C48.6234 58.2122 48.7742 58.5502 48.7742 58.904C48.7742 59.593 48.2145 60.1526 47.5256 60.1526ZM69.6774 46.6606L50.113 56.4436C50.0495 56.3762 49.9831 56.3121 49.9134 56.2497L40.1031 47.4193C39.2434 46.6436 38.1321 46.2171 36.9742 46.2171C36.1276 46.2171 35.2963 46.4474 34.5682 46.884L30.2423 49.4782C29.9996 49.6245 29.7223 49.701 29.4388 49.701C28.5735 49.701 27.871 48.9985 27.871 48.1332V47.9035C27.871 47.3053 28.2033 46.7689 28.7374 46.5018L35.2152 43.2629C36.3238 42.7078 37.6399 42.5836 38.8346 42.9272L46.1324 45.0116L47.8998 45.0559L69.6774 33.5938V46.6606Z" fill="#565656"/>
</svg>
