<svg width="24" height="24" viewBox="0 0 24 24" fill="none" xmlns="http://www.w3.org/2000/svg">
<path d="M0.5 3.63121C0.5 1.80831 1.70439 0.5 3 0.5H21C22.2956 0.5 23.5 1.80831 23.5 3.63121V15.7352C23.5 17.5581 22.2956 18.8664 21 18.8664H5C4.64629 18.8664 4.31237 19.0277 4.03199 19.2148C3.7419 19.4083 3.44829 19.6709 3.16383 19.9592C2.59524 20.5356 2.00508 21.2752 1.48753 21.9252C1.10224 22.4091 0.768397 22.828 0.5 23.1247V3.63121ZM0.0765704 23.5191C0.0766193 23.519 0.0786302 23.5179 0.082455 23.5163C0.0784337 23.5185 0.0765214 23.5192 0.0765704 23.5191Z" stroke="#565656"/>
</svg>
